<svg width="36" height="33" viewBox="0 0 36 33" fill="none" xmlns="http://www.w3.org/2000/svg">
<path fill-rule="evenodd" clip-rule="evenodd" d="M36 23.0083V21.0924C36 20.9152 35.832 20.787 35.6669 20.8359L26.784 23.4515C26.736 23.4637 26.6939 23.4911 26.661 23.5278C25.7096 24.5982 24.9011 25.3164 24.6869 25.5069L24.672 25.5201C24.1201 25.9966 23.4359 26.2565 22.716 26.2565H19.5V22.9167H22.056C22.1219 22.9167 22.185 22.8923 22.2331 22.8495L22.5629 22.5408C22.704 22.4095 22.872 22.2506 23.0729 22.0458C23.0901 22.0285 23.1074 22.0108 23.1249 21.993C23.2305 21.8859 23.3434 21.7713 23.4539 21.6455C23.5859 21.5142 23.7151 21.3675 23.8349 21.224C24.036 21.0038 24.2279 20.7747 24.429 20.5333C24.573 20.3745 24.705 20.1942 24.834 20.0138C24.978 19.8427 25.1189 19.6503 25.251 19.467C25.3001 19.3934 25.3524 19.319 25.4058 19.2431C25.4567 19.1707 25.5087 19.0969 25.5599 19.0209C25.656 18.8742 25.752 18.7183 25.833 18.5717C26.085 18.1744 26.298 17.7497 26.478 17.325C26.5606 17.1432 26.6267 16.9516 26.6908 16.7653C26.6989 16.7421 26.707 16.7188 26.715 16.6955C26.7871 16.4786 26.847 16.2739 26.892 16.0569C26.9999 15.5466 27.0239 15.0395 26.976 14.5322C26.964 14.3733 26.952 14.2175 26.916 14.0709V14.0464C26.904 13.9425 26.8799 13.8264 26.847 13.7195C26.7389 13.2245 26.571 12.7295 26.3579 12.2436C26.286 12.0633 26.2021 11.88 26.1211 11.712C25.9289 11.3484 25.7279 10.9847 25.5 10.6333C25.4543 10.5591 25.4037 10.4839 25.3532 10.4089C25.3143 10.351 25.2756 10.2933 25.239 10.2361C25.0946 10.0093 24.9323 9.79066 24.7747 9.57846C24.7392 9.5305 24.7037 9.48288 24.6689 9.43558C24.5759 9.3112 24.4742 9.18685 24.3718 9.06168C24.3156 8.99308 24.2592 8.92422 24.204 8.85497C24.048 8.6625 23.895 8.47919 23.739 8.29889C23.1809 7.65722 22.596 7.07669 22.074 6.58169C21.9779 6.48389 21.873 6.38611 21.7651 6.29142C21.3601 5.91555 20.991 5.58858 20.6819 5.33501C20.5891 5.26226 20.5058 5.1906 20.4284 5.12388C20.3756 5.0785 20.3255 5.03542 20.2769 4.99585C20.1833 4.92474 20.102 4.86168 20.0338 4.80874C19.9905 4.7752 19.9526 4.74571 19.92 4.72082C19.8959 4.7025 19.869 4.69031 19.842 4.68108L19.5 4.58335V1.69889C19.5 1.22834 19.314 0.80668 19.0171 0.498033C18.7199 0.189446 18.306 0 17.85 0C16.9379 0 16.2 0.76082 16.2 1.69889V3.64219L16.029 3.59335L15.564 3.45888L15.141 3.33973C15.141 3.33973 15.1385 3.3392 15.137 3.33858C15.135 3.3377 15.1325 3.33665 15.1291 3.33665H15.12L11.91 2.45055C11.769 2.41082 11.649 2.56666 11.721 2.69805L12.234 3.66361C12.2631 3.73781 12.3 3.81203 12.3379 3.88829C12.3625 3.93764 12.3874 3.98785 12.411 4.03946C12.495 4.21054 12.579 4.39082 12.66 4.57111C12.732 4.72997 12.804 4.88582 12.888 5.05695C12.9233 5.13737 12.9593 5.21879 12.9958 5.30135C13.1299 5.60462 13.2709 5.92352 13.41 6.26696C13.53 6.55723 13.65 6.8475 13.755 7.15001C14.043 7.91084 14.316 8.72358 14.553 9.55781C14.612 9.7445 14.6591 9.92515 14.7069 10.1083C14.7272 10.1859 14.7475 10.2639 14.769 10.3431L14.802 10.4897C14.898 10.8778 14.982 11.2628 15.0421 11.6508C15.09 11.9166 15.1349 12.1703 15.159 12.4269C15.195 12.7172 15.231 13.0075 15.2429 13.2978C15.2671 13.5636 15.2789 13.8417 15.2789 14.1075C15.2789 14.7858 15.219 15.4397 15.078 16.0569C15.0691 16.0901 15.0604 16.1237 15.0515 16.1575C15.0119 16.3077 14.9709 16.4634 14.922 16.613C14.8777 16.7732 14.8203 16.9335 14.7606 17.0999C14.7395 17.1588 14.7181 17.2184 14.697 17.2791C14.693 17.2899 14.6891 17.3007 14.6851 17.3116C14.641 17.4326 14.5961 17.5558 14.541 17.6765C14.244 18.4036 13.875 19.1278 13.494 19.8061C12.936 20.8115 12.375 21.6945 11.982 22.2628C11.9579 22.2996 11.9345 22.3346 11.9119 22.3681C11.8837 22.41 11.8569 22.4499 11.832 22.4888C11.709 22.666 11.835 22.9167 12.048 22.9167H16.2V26.2565H12C10.872 26.2565 9.82798 25.6055 9.324 24.5636C9.063 24.0412 8.96099 23.4666 9.02102 22.9045C9.03596 22.7363 8.91297 22.5774 8.74502 22.5774H0.260987C0.116974 22.5774 0 22.6967 0 22.8433V23.0205C0 28.5328 4.37102 33 9.76496 33H24.984C27.8368 33 29.4567 30.3522 31.0488 27.7497C31.4927 27.0242 31.9343 26.3023 32.4 25.6422C33.2369 24.4566 35.2499 23.5155 35.838 23.2589C35.9339 23.2162 36 23.1183 36 23.0083ZM2.2623 18.6419L2.13633 18.8435C2.02531 19.0177 2.1483 19.2499 2.35831 19.2499H10.1703C10.2573 19.2499 10.3383 19.2072 10.3863 19.1339C10.4883 18.975 10.5843 18.81 10.6713 18.6419C11.3463 17.4869 11.9463 16.2372 12.1653 15.3144C12.6783 13.0716 11.5833 9.46909 10.3143 6.57243C10.2303 6.37994 9.96932 6.36162 9.8583 6.53882L2.2623 18.6419Z" fill="white"/>
</svg>
