<svg width="48" height="48" viewBox="0 0 48 48" fill="none" xmlns="http://www.w3.org/2000/svg">
<path d="M34.9541 13.0937C32.786 12.1015 30.4971 11.3976 28.146 11C27.8243 11.5749 27.5332 12.1664 27.2739 12.772C24.7695 12.3948 22.2226 12.3948 19.7182 12.772C19.4588 12.1664 19.1677 11.575 18.8461 11C16.4935 11.401 14.2031 12.1065 12.0328 13.0989C7.72414 19.4708 6.55613 25.6845 7.14014 31.8099C9.66338 33.6734 12.4876 35.0906 15.49 35.9999C16.1661 35.0911 16.7643 34.1268 17.2784 33.1175C16.302 32.753 15.3597 32.3033 14.4622 31.7736C14.6984 31.6024 14.9294 31.426 15.1526 31.2547C17.764 32.4823 20.6142 33.1187 23.4999 33.1187C26.3857 33.1187 29.2359 32.4823 31.8473 31.2547C32.0731 31.4389 32.3041 31.6154 32.5377 31.7736C31.6385 32.3042 30.6944 32.7548 29.7163 33.1201C30.2297 34.129 30.828 35.0924 31.5046 35.9999C34.5097 35.0943 37.336 33.6777 39.8597 31.8125C40.545 24.709 38.6891 18.5524 34.9541 13.0937ZM18.0181 28.0428C16.3907 28.0428 15.0462 26.5666 15.0462 24.7505C15.0462 22.9344 16.344 21.4452 18.0129 21.4452C19.6819 21.4452 21.016 22.9344 20.9874 24.7505C20.9589 26.5666 19.6767 28.0428 18.0181 28.0428ZM28.9818 28.0428C27.3518 28.0428 26.0124 26.5666 26.0124 24.7505C26.0124 22.9344 27.3102 21.4452 28.9818 21.4452C30.6533 21.4452 31.977 22.9344 31.9485 24.7505C31.9199 26.5666 30.6403 28.0428 28.9818 28.0428Z" fill="white"/>
</svg>
