<svg width="48" height="48" viewBox="0 0 48 48" fill="none" xmlns="http://www.w3.org/2000/svg">
<path fill-rule="evenodd" clip-rule="evenodd" d="M39.8415 25.1938C39.2311 33.4096 32.3719 39.8857 24 39.8857C21.0083 39.8857 18.2098 39.0587 15.8206 37.6209C17.995 37.2674 20.8852 36.7229 25.3716 34.9284C31.4428 32.4999 36.5217 29.358 39.8415 25.1938ZM39.718 21.6835C38.7715 22.7055 37.3383 23.9812 35.572 25.2806C35.0028 25.6993 34.4043 26.1166 33.7828 26.525C33.7602 26.5398 33.7297 26.521 33.7297 26.494V14.2837C33.7297 14.0075 33.5059 13.7837 33.2297 13.7837H28.8784C28.6022 13.7837 28.3784 14.0075 28.3784 14.2837V28.8675C28.3784 29.0911 28.3535 29.4985 28.1478 29.5863C27.9443 29.6733 27.7403 29.7577 27.536 29.8394C27.3625 29.9088 27.1877 29.9775 27.0118 30.0455C26.9668 30.0629 26.9189 30.0222 26.9189 29.974V18.1756C26.9189 17.8994 26.6951 17.6756 26.4189 17.6756H22.0676C21.7914 17.6756 21.5676 17.8994 21.5676 18.1756V31.5563C21.5676 31.7066 21.5085 31.888 21.3642 31.9301C21.0491 32.022 20.7357 32.1117 20.4248 32.199C20.2656 32.2437 20.1081 32.1239 20.1081 31.9586V22.0675C20.1081 21.7913 19.8843 21.5675 19.6081 21.5675H15.2568C14.9806 21.5675 14.7568 21.7913 14.7568 22.0675V33.432C14.7568 33.5488 14.6758 33.65 14.5619 33.6757C13.4381 33.9292 12.5079 34.1229 11.865 34.2522C9.52504 31.4854 8.11429 27.9074 8.11429 24C8.11429 15.2266 15.2266 8.11429 24 8.11429C31.9866 8.11429 38.5966 14.008 39.718 21.6835ZM24 42C33.9411 42 42 33.9411 42 24C42 14.0589 33.9411 6 24 6C14.0589 6 6 14.0589 6 24C6 33.9411 14.0589 42 24 42Z" fill="white"/>
</svg>
