<svg width="608" height="112" viewBox="0 0 608 112" fill="none" xmlns="http://www.w3.org/2000/svg">
<path d="M1.51136 110V31.4545H20.0227V110H1.51136ZM10.8182 20.3068C7.88636 20.3068 5.36364 19.3352 3.25 17.392C1.13636 15.4148 0.0795458 13.0454 0.0795458 10.2841C0.0795458 7.48863 1.13636 5.11931 3.25 3.17613C5.36364 1.19886 7.88636 0.210224 10.8182 0.210224C13.7841 0.210224 16.3068 1.19886 18.3864 3.17613C20.5 5.11931 21.5568 7.48863 21.5568 10.2841C21.5568 13.0454 20.5 15.4148 18.3864 17.392C16.3068 19.3352 13.7841 20.3068 10.8182 20.3068ZM80.4398 31.4545V45.7727H35.2864V31.4545H80.4398ZM46.4341 12.6364H64.9455V86.375C64.9455 88.8636 65.3205 90.7727 66.0705 92.1023C66.8546 93.3977 67.8773 94.2841 69.1387 94.7614C70.4001 95.2386 71.7978 95.4773 73.3319 95.4773C74.491 95.4773 75.5478 95.392 76.5023 95.2216C77.491 95.0511 78.241 94.8977 78.7523 94.7614L81.8717 109.233C80.883 109.574 79.4682 109.949 77.6273 110.358C75.8205 110.767 73.6046 111.006 70.9796 111.074C66.3432 111.21 62.1671 110.511 58.4512 108.977C54.7353 107.409 51.7864 104.989 49.6046 101.716C47.4569 98.4432 46.4001 94.3523 46.4341 89.4432V12.6364ZM132.01 111.534C124.135 111.534 117.334 109.898 111.607 106.625C105.914 103.318 101.533 98.6477 98.4649 92.6136C95.3967 86.5455 93.8626 79.4034 93.8626 71.1875C93.8626 63.108 95.3967 56.017 98.4649 49.9148C101.567 43.7784 105.897 39.0057 111.454 35.5966C117.01 32.1534 123.539 30.4318 131.039 30.4318C135.88 30.4318 140.448 31.2159 144.743 32.7841C149.073 34.3182 152.891 36.7045 156.198 39.9432C159.539 43.1818 162.164 47.3068 164.073 52.3182C165.982 57.2955 166.936 63.2273 166.936 70.1136V75.7898H102.556V63.3125H149.192C149.158 59.767 148.391 56.6136 146.891 53.8523C145.391 51.0568 143.294 48.858 140.601 47.2557C137.942 45.6534 134.84 44.8523 131.294 44.8523C127.51 44.8523 124.186 45.7727 121.323 47.6136C118.459 49.4205 116.226 51.8068 114.624 54.7727C113.056 57.7045 112.255 60.9261 112.221 64.4375V75.3295C112.221 79.8977 113.056 83.8182 114.726 87.0909C116.397 90.3295 118.732 92.8182 121.732 94.5568C124.732 96.2614 128.243 97.1136 132.266 97.1136C134.959 97.1136 137.397 96.7386 139.579 95.9886C141.76 95.2045 143.652 94.0625 145.255 92.5625C146.857 91.0625 148.067 89.2045 148.885 86.9886L166.169 88.9318C165.079 93.5 162.999 97.4886 159.931 100.898C156.897 104.273 153.01 106.898 148.272 108.773C143.533 110.614 138.113 111.534 132.01 111.534ZM184.757 110V31.4545H202.706V44.5455H203.524C204.956 40.0114 207.41 36.517 210.888 34.0625C214.399 31.5739 218.405 30.3295 222.905 30.3295C223.927 30.3295 225.069 30.3807 226.331 30.4829C227.626 30.5511 228.7 30.6705 229.552 30.8409V47.8693C228.768 47.5966 227.524 47.358 225.819 47.1534C224.149 46.9148 222.53 46.7955 220.962 46.7955C217.587 46.7955 214.552 47.5284 211.859 48.9943C209.2 50.4261 207.104 52.4205 205.569 54.9773C204.035 57.5341 203.268 60.483 203.268 63.8239V110H184.757ZM265.207 111.585C260.229 111.585 255.747 110.699 251.758 108.926C247.803 107.119 244.667 104.46 242.349 100.949C240.065 97.4375 238.923 93.108 238.923 87.9602C238.923 83.5284 239.741 79.8636 241.377 76.9659C243.014 74.0682 245.247 71.75 248.076 70.0114C250.906 68.2727 254.093 66.9602 257.639 66.0739C261.218 65.1534 264.917 64.4886 268.735 64.0795C273.337 63.6023 277.07 63.1761 279.934 62.8011C282.798 62.392 284.877 61.7784 286.173 60.9602C287.502 60.108 288.167 58.7955 288.167 57.0227V56.7159C288.167 52.8636 287.025 49.8807 284.741 47.767C282.457 45.6534 279.167 44.5966 274.872 44.5966C270.337 44.5966 266.741 45.5852 264.082 47.5625C261.457 49.5398 259.684 51.875 258.764 54.5682L241.479 52.1136C242.843 47.3409 245.093 43.3523 248.229 40.1477C251.366 36.9091 255.201 34.4886 259.735 32.8864C264.269 31.25 269.281 30.4318 274.769 30.4318C278.553 30.4318 282.32 30.875 286.07 31.7614C289.82 32.6477 293.247 34.1136 296.349 36.1591C299.451 38.1705 301.94 40.9148 303.815 44.392C305.724 47.8693 306.678 52.2159 306.678 57.4318V110H288.883V99.2102H288.269C287.144 101.392 285.559 103.437 283.514 105.347C281.502 107.222 278.962 108.739 275.894 109.898C272.86 111.023 269.298 111.585 265.207 111.585ZM270.014 97.983C273.729 97.983 276.951 97.25 279.678 95.7841C282.406 94.2841 284.502 92.3068 285.968 89.8523C287.468 87.3977 288.218 84.7216 288.218 81.8239V72.5682C287.639 73.0455 286.65 73.4886 285.252 73.8977C283.889 74.3068 282.354 74.6648 280.65 74.9716C278.945 75.2784 277.258 75.5511 275.587 75.7898C273.917 76.0284 272.468 76.233 271.241 76.4034C268.479 76.7784 266.008 77.392 263.826 78.2443C261.644 79.0966 259.923 80.2898 258.661 81.8239C257.4 83.3239 256.769 85.267 256.769 87.6534C256.769 91.0625 258.014 93.6364 260.502 95.375C262.991 97.1136 266.161 97.983 270.014 97.983ZM366.674 31.4545V45.7727H321.52V31.4545H366.674ZM332.668 12.6364H351.179V86.375C351.179 88.8636 351.554 90.7727 352.304 92.1023C353.088 93.3977 354.111 94.2841 355.372 94.7614C356.634 95.2386 358.032 95.4773 359.566 95.4773C360.725 95.4773 361.782 95.392 362.736 95.2216C363.725 95.0511 364.475 94.8977 364.986 94.7614L368.105 109.233C367.117 109.574 365.702 109.949 363.861 110.358C362.054 110.767 359.838 111.006 357.213 111.074C352.577 111.21 348.401 110.511 344.685 108.977C340.969 107.409 338.02 104.989 335.838 101.716C333.691 98.4432 332.634 94.3523 332.668 89.4432V12.6364ZM417.733 111.534C410.062 111.534 403.415 109.847 397.79 106.472C392.165 103.097 387.801 98.375 384.699 92.3068C381.63 86.2386 380.096 79.1477 380.096 71.0341C380.096 62.9205 381.63 55.8125 384.699 49.7102C387.801 43.608 392.165 38.8693 397.79 35.4943C403.415 32.1193 410.062 30.4318 417.733 30.4318C425.403 30.4318 432.051 32.1193 437.676 35.4943C443.301 38.8693 447.647 43.608 450.716 49.7102C453.818 55.8125 455.369 62.9205 455.369 71.0341C455.369 79.1477 453.818 86.2386 450.716 92.3068C447.647 98.375 443.301 103.097 437.676 106.472C432.051 109.847 425.403 111.534 417.733 111.534ZM417.835 96.7045C421.994 96.7045 425.471 95.5625 428.267 93.2784C431.062 90.9602 433.142 87.858 434.505 83.9716C435.903 80.0852 436.602 75.7557 436.602 70.983C436.602 66.1761 435.903 61.8295 434.505 57.9432C433.142 54.0227 431.062 50.9034 428.267 48.5852C425.471 46.267 421.994 45.108 417.835 45.108C413.574 45.108 410.028 46.267 407.199 48.5852C404.403 50.9034 402.307 54.0227 400.909 57.9432C399.545 61.8295 398.863 66.1761 398.863 70.983C398.863 75.7557 399.545 80.0852 400.909 83.9716C402.307 87.858 404.403 90.9602 407.199 93.2784C410.028 95.5625 413.574 96.7045 417.835 96.7045ZM507.502 111.534C499.832 111.534 493.184 109.847 487.559 106.472C481.934 103.097 477.57 98.375 474.468 92.3068C471.4 86.2386 469.866 79.1477 469.866 71.0341C469.866 62.9205 471.4 55.8125 474.468 49.7102C477.57 43.608 481.934 38.8693 487.559 35.4943C493.184 32.1193 499.832 30.4318 507.502 30.4318C515.173 30.4318 521.82 32.1193 527.445 35.4943C533.07 38.8693 537.417 43.608 540.485 49.7102C543.587 55.8125 545.138 62.9205 545.138 71.0341C545.138 79.1477 543.587 86.2386 540.485 92.3068C537.417 98.375 533.07 103.097 527.445 106.472C521.82 109.847 515.173 111.534 507.502 111.534ZM507.604 96.7045C511.763 96.7045 515.241 95.5625 518.036 93.2784C520.832 90.9602 522.911 87.858 524.275 83.9716C525.673 80.0852 526.371 75.7557 526.371 70.983C526.371 66.1761 525.673 61.8295 524.275 57.9432C522.911 54.0227 520.832 50.9034 518.036 48.5852C515.241 46.267 511.763 45.108 507.604 45.108C503.343 45.108 499.798 46.267 496.968 48.5852C494.173 50.9034 492.076 54.0227 490.678 57.9432C489.315 61.8295 488.633 66.1761 488.633 70.983C488.633 75.7557 489.315 80.0852 490.678 83.9716C492.076 87.858 494.173 90.9602 496.968 93.2784C499.798 95.5625 503.343 96.7045 507.604 96.7045ZM563.01 110V31.4545H580.959V44.5455H581.777C583.209 40.0114 585.664 36.517 589.141 34.0625C592.652 31.5739 596.658 30.3295 601.158 30.3295C602.181 30.3295 603.323 30.3807 604.584 30.4829C605.879 30.5511 606.953 30.6705 607.806 30.8409V47.8693C607.022 47.5966 605.777 47.358 604.073 47.1534C602.402 46.9148 600.783 46.7955 599.215 46.7955C595.84 46.7955 592.806 47.5284 590.112 48.9943C587.453 50.4261 585.357 52.4205 583.823 54.9773C582.289 57.5341 581.522 60.483 581.522 63.8239V110H563.01Z" fill="#565656" fill-opacity="0.7"/>
<path d="M1.51136 110H0.511364V111H1.51136V110ZM1.51136 31.4545V30.4545H0.511364V31.4545H1.51136ZM20.0227 31.4545H21.0227V30.4545H20.0227V31.4545ZM20.0227 110V111H21.0227V110H20.0227ZM3.25 17.392L2.56682 18.1223L2.5732 18.1282L3.25 17.392ZM3.25 3.17613L3.92683 3.91232L3.93316 3.9064L3.25 3.17613ZM18.3864 3.17613L17.6973 3.90083L17.7034 3.90662L17.7096 3.9123L18.3864 3.17613ZM18.3864 17.392L19.0691 18.1227L19.0695 18.1223L18.3864 17.392ZM2.51136 110V31.4545H0.511364V110H2.51136ZM1.51136 32.4545H20.0227V30.4545H1.51136V32.4545ZM19.0227 31.4545V110H21.0227V31.4545H19.0227ZM20.0227 109H1.51136V111H20.0227V109ZM10.8182 19.3068C8.1312 19.3068 5.85161 18.4255 3.9268 16.6559L2.5732 18.1282C4.87566 20.245 7.64153 21.3068 10.8182 21.3068V19.3068ZM3.93316 16.6618C2.0107 14.8633 1.07955 12.754 1.07955 10.2841H-0.920454C-0.920454 13.3369 0.262033 15.9662 2.56684 18.1223L3.93316 16.6618ZM1.07955 10.2841C1.07955 7.77691 2.01281 5.67193 3.9268 3.9123L2.5732 2.43996C0.259913 4.5667 -0.920454 7.20035 -0.920454 10.2841H1.07955ZM3.93316 3.9064C5.85888 2.10492 8.1364 1.21022 10.8182 1.21022V-0.789776C7.63633 -0.789776 4.86839 0.292797 2.56684 2.44586L3.93316 3.9064ZM10.8182 1.21022C13.5372 1.21022 15.8104 2.10678 17.6973 3.90083L19.0754 2.45143C16.8032 0.290941 14.031 -0.789776 10.8182 -0.789776V1.21022ZM17.7096 3.9123C19.6236 5.67193 20.5568 7.77691 20.5568 10.2841H22.5568C22.5568 7.20035 21.3765 4.5667 19.0632 2.43996L17.7096 3.9123ZM20.5568 10.2841C20.5568 12.754 19.6257 14.8633 17.7032 16.6618L19.0695 18.1223C21.3743 15.9662 22.5568 13.3369 22.5568 10.2841H20.5568ZM17.7036 16.6614C15.8177 18.4236 13.5424 19.3068 10.8182 19.3068V21.3068C14.0258 21.3068 16.7959 20.2468 19.0691 18.1227L17.7036 16.6614ZM80.4398 31.4545H81.4398V30.4545H80.4398V31.4545ZM80.4398 45.7727V46.7727H81.4398V45.7727H80.4398ZM35.2864 45.7727H34.2864V46.7727H35.2864V45.7727ZM35.2864 31.4545V30.4545H34.2864V31.4545H35.2864ZM46.4341 12.6364V11.6364H45.4341V12.6364H46.4341ZM64.9455 12.6364H65.9455V11.6364H64.9455V12.6364ZM66.0705 92.1023L65.1995 92.5936L65.2071 92.607L65.215 92.6201L66.0705 92.1023ZM69.1387 94.7614L68.7848 95.6966L69.1387 94.7614ZM76.5023 95.2216L76.3324 94.2361L76.3265 94.2372L76.5023 95.2216ZM78.7523 94.7614L79.7299 94.5507L79.5087 93.5247L78.4947 93.7951L78.7523 94.7614ZM81.8717 109.233L82.1976 110.178L83.0361 109.889L82.8492 109.022L81.8717 109.233ZM77.6273 110.358L77.4104 109.382L77.4065 109.383L77.6273 110.358ZM70.9796 111.074L70.9536 110.074L70.9502 110.074L70.9796 111.074ZM58.4512 108.977L58.0624 109.899L58.0696 109.902L58.4512 108.977ZM49.6046 101.716L48.7685 102.265L48.7726 102.271L49.6046 101.716ZM46.4341 89.4432L47.4341 89.4501V89.4432H46.4341ZM79.4398 31.4545V45.7727H81.4398V31.4545H79.4398ZM80.4398 44.7727H35.2864V46.7727H80.4398V44.7727ZM36.2864 45.7727V31.4545H34.2864V45.7727H36.2864ZM35.2864 32.4545H80.4398V30.4545H35.2864V32.4545ZM46.4341 13.6364H64.9455V11.6364H46.4341V13.6364ZM63.9455 12.6364V86.375H65.9455V12.6364H63.9455ZM63.9455 86.375C63.9455 88.9389 64.3275 91.0477 65.1995 92.5936L66.9415 91.611C66.3135 90.4977 65.9455 88.7884 65.9455 86.375H63.9455ZM65.215 92.6201C66.0999 94.0821 67.2887 95.1305 68.7848 95.6966L69.4926 93.8261C68.466 93.4376 67.6093 92.7134 66.926 91.5845L65.215 92.6201ZM68.7848 95.6966C70.1737 96.2222 71.6933 96.4773 73.3319 96.4773V94.4773C71.9022 94.4773 70.6264 94.2551 69.4926 93.8261L68.7848 95.6966ZM73.3319 96.4773C74.5389 96.4773 75.6556 96.3886 76.6781 96.206L76.3265 94.2372C75.4399 94.3955 74.443 94.4773 73.3319 94.4773V96.4773ZM76.6722 96.2071C77.6693 96.0351 78.4545 95.8757 79.01 95.7276L78.4947 93.7951C78.0274 93.9197 77.3127 94.0671 76.3324 94.2361L76.6722 96.2071ZM77.7748 94.9721L80.8941 109.444L82.8492 109.022L79.7299 94.5507L77.7748 94.9721ZM81.5457 108.288C80.6104 108.61 79.2386 108.975 77.4104 109.382L77.8443 111.334C79.6978 110.922 81.1557 110.538 82.1976 110.178L81.5457 108.288ZM77.4065 109.383C75.684 109.773 73.5378 110.007 70.9536 110.074L71.0056 112.074C73.6714 112.004 75.957 111.761 77.8482 111.333L77.4065 109.383ZM70.9502 110.074C66.4331 110.207 62.4 109.526 58.8328 108.053L58.0696 109.902C61.9342 111.497 66.2534 112.213 71.009 112.073L70.9502 110.074ZM58.84 108.056C55.2997 106.562 52.5069 104.267 50.4367 101.161L48.7726 102.271C51.0659 105.711 54.1709 108.256 58.0624 109.899L58.84 108.056ZM50.4407 101.167C48.4258 98.097 47.4011 94.2121 47.4341 89.4501L45.4342 89.4362C45.3991 94.4925 46.488 98.7894 48.7686 102.265L50.4407 101.167ZM47.4341 89.4432V12.6364H45.4341V89.4432H47.4341ZM111.607 106.625L111.105 107.49L111.111 107.493L111.607 106.625ZM98.4649 92.6136L97.5725 93.0649L97.5735 93.0669L98.4649 92.6136ZM98.4649 49.9148L97.5724 49.4636L97.5715 49.4656L98.4649 49.9148ZM111.454 35.5966L111.976 36.449L111.98 36.4466L111.454 35.5966ZM144.743 32.7841L144.4 33.7235L144.409 33.7267L144.743 32.7841ZM156.198 39.9432L155.498 40.6576L155.502 40.6612L156.198 39.9432ZM164.073 52.3182L163.138 52.6742L163.139 52.6763L164.073 52.3182ZM166.936 75.7898V76.7898H167.936V75.7898H166.936ZM102.556 75.7898H101.556V76.7898H102.556V75.7898ZM102.556 63.3125V62.3125H101.556V63.3125H102.556ZM149.192 63.3125V64.3125H150.202L150.192 63.3029L149.192 63.3125ZM146.891 53.8523L146.01 54.3251L146.012 54.3296L146.891 53.8523ZM140.601 47.2557L140.085 48.1122L140.09 48.1151L140.601 47.2557ZM121.323 47.6136L121.856 48.4594L121.864 48.4548L121.323 47.6136ZM114.624 54.7727L113.744 54.2974L113.742 54.3011L114.624 54.7727ZM112.221 64.4375L111.221 64.4278V64.4375H112.221ZM114.726 87.0909L113.836 87.5455L113.838 87.5493L114.726 87.0909ZM121.732 94.5568L121.23 95.4221L121.238 95.4263L121.732 94.5568ZM139.579 95.9886L139.904 96.9344L139.917 96.9297L139.579 95.9886ZM148.885 86.9886L148.997 85.9949L148.219 85.9074L147.947 86.6423L148.885 86.9886ZM166.169 88.9318L167.142 89.1641L167.405 88.0644L166.281 87.9381L166.169 88.9318ZM159.931 100.898L159.188 100.229L159.187 100.229L159.931 100.898ZM148.272 108.773L148.634 109.705L148.64 109.703L148.272 108.773ZM132.01 110.534C124.276 110.534 117.652 108.928 112.103 105.757L111.111 107.493C117.016 110.868 123.995 112.534 132.01 112.534V110.534ZM112.109 105.76C106.588 102.553 102.34 98.0278 99.3563 92.1604L97.5735 93.0669C100.726 99.2676 105.24 104.083 111.105 107.49L112.109 105.76ZM99.3573 92.1624C96.3731 86.2603 94.8626 79.2789 94.8626 71.1875H92.8626C92.8626 79.5279 94.4203 86.8306 97.5725 93.0649L99.3573 92.1624ZM94.8626 71.1875C94.8626 63.2356 96.3719 56.3036 99.3583 50.364L97.5715 49.4656C94.4215 55.7305 92.8626 62.9803 92.8626 71.1875H94.8626ZM99.3573 50.3659C102.381 44.3855 106.586 39.7557 111.976 36.449L110.931 34.7442C105.207 38.2556 100.754 43.1713 97.5724 49.4636L99.3573 50.3659ZM111.98 36.4466C117.357 33.1152 123.697 31.4318 131.039 31.4318V29.4318C123.381 29.4318 116.664 31.1916 110.927 34.7465L111.98 36.4466ZM131.039 31.4318C135.77 31.4318 140.221 32.1977 144.4 33.7234L145.086 31.8447C140.675 30.2341 135.99 29.4318 131.039 29.4318V31.4318ZM144.409 33.7267C148.601 35.2118 152.294 37.5199 155.498 40.6576L156.898 39.2287C153.488 35.8892 149.545 33.4245 145.077 31.8415L144.409 33.7267ZM155.502 40.6612C158.723 43.7836 161.273 47.7787 163.138 52.6742L165.007 51.9622C163.054 46.835 160.355 42.58 156.894 39.2252L155.502 40.6612ZM163.139 52.6763C164.994 57.5113 165.936 63.3157 165.936 70.1136H167.936C167.936 63.1388 166.97 57.0796 165.007 51.9601L163.139 52.6763ZM165.936 70.1136V75.7898H167.936V70.1136H165.936ZM166.936 74.7898H102.556V76.7898H166.936V74.7898ZM103.556 75.7898V63.3125H101.556V75.7898H103.556ZM102.556 64.3125H149.192V62.3125H102.556V64.3125ZM150.192 63.3029C150.157 59.6152 149.357 56.2975 147.77 53.3749L146.012 54.3296C147.425 56.9297 148.159 59.9189 148.192 63.3221L150.192 63.3029ZM147.772 53.3795C146.187 50.426 143.964 48.0926 141.113 46.3963L140.09 48.1151C142.625 49.6233 144.595 51.6876 146.01 54.3251L147.772 53.3795ZM141.117 46.3992C138.281 44.6903 134.995 43.8523 131.294 43.8523V45.8523C134.684 45.8523 137.603 46.6165 140.085 48.1122L141.117 46.3992ZM131.294 43.8523C127.341 43.8523 123.825 44.8165 120.782 46.7725L121.864 48.4548C124.548 46.7289 127.68 45.8523 131.294 45.8523V43.8523ZM120.789 46.7679C117.781 48.666 115.428 51.1796 113.744 54.2974L115.504 55.248C117.024 52.434 119.137 50.1749 121.856 48.4594L120.789 46.7679ZM113.742 54.3011C112.094 57.3831 111.256 60.7645 111.221 64.4278L113.221 64.4472C113.253 61.0878 114.018 58.026 115.506 55.2444L113.742 54.3011ZM111.221 64.4375V75.3295H113.221V64.4375H111.221ZM111.221 75.3295C111.221 80.0181 112.078 84.1019 113.836 87.5455L115.617 86.6363C114.034 83.5344 113.221 79.7774 113.221 75.3295H111.221ZM113.838 87.5493C115.591 90.9487 118.057 93.5826 121.231 95.422L122.233 93.6916C119.407 92.0538 117.203 89.7104 115.615 86.6325L113.838 87.5493ZM121.238 95.4263C124.412 97.2296 128.099 98.1136 132.266 98.1136V96.1136C128.388 96.1136 125.052 95.2931 122.226 93.6874L121.238 95.4263ZM132.266 98.1136C135.052 98.1136 137.601 97.7257 139.904 96.9343L139.253 95.0429C137.192 95.7515 134.867 96.1136 132.266 96.1136V98.1136ZM139.917 96.9297C142.219 96.1022 144.231 94.8909 145.938 93.2925L144.571 91.8325C143.074 93.2341 141.301 94.3069 139.24 95.0476L139.917 96.9297ZM145.938 93.2925C147.662 91.6782 148.956 89.6855 149.823 87.335L147.947 86.6423C147.179 88.7236 146.051 90.4468 144.571 91.8325L145.938 93.2925ZM148.774 87.9824L166.058 89.9256L166.281 87.9381L148.997 85.9949L148.774 87.9824ZM165.197 88.6995C164.144 93.1094 162.141 96.9469 159.188 100.229L160.674 101.567C163.857 98.0304 166.013 93.8906 167.142 89.1641L165.197 88.6995ZM159.187 100.229C156.269 103.476 152.516 106.018 147.904 107.843L148.64 109.703C153.504 107.778 157.525 105.07 160.674 101.566L159.187 100.229ZM147.91 107.841C143.307 109.629 138.013 110.534 132.01 110.534V112.534C138.212 112.534 143.759 111.599 148.634 109.705L147.91 107.841ZM184.757 110H183.757V111H184.757V110ZM184.757 31.4545V30.4545H183.757V31.4545H184.757ZM202.706 31.4545H203.706V30.4545H202.706V31.4545ZM202.706 44.5455H201.706V45.5455H202.706V44.5455ZM203.524 44.5455V45.5455H204.257L204.478 44.8466L203.524 44.5455ZM210.888 34.0625L211.464 34.8795L211.466 34.8784L210.888 34.0625ZM226.331 30.4829L226.25 31.4797L226.264 31.4808L226.278 31.4816L226.331 30.4829ZM229.552 30.8409H230.552V30.0211L229.749 29.8603L229.552 30.8409ZM229.552 47.8693L229.224 48.8138L230.552 49.2759V47.8693H229.552ZM225.819 47.1534L225.678 48.1434L225.689 48.1449L225.7 48.1463L225.819 47.1534ZM211.859 48.9943L212.333 49.8748L212.337 49.8726L211.859 48.9943ZM203.268 110V111H204.268V110H203.268ZM185.757 110V31.4545H183.757V110H185.757ZM184.757 32.4545H202.706V30.4545H184.757V32.4545ZM201.706 31.4545V44.5455H203.706V31.4545H201.706ZM202.706 45.5455H203.524V43.5455H202.706V45.5455ZM204.478 44.8466C205.852 40.4953 208.187 37.1932 211.464 34.8795L210.311 33.2455C206.634 35.8409 204.06 39.5274 202.57 44.2443L204.478 44.8466ZM211.466 34.8784C214.8 32.5152 218.602 31.3295 222.905 31.3295V29.3295C218.208 29.3295 213.998 30.6325 210.309 33.2466L211.466 34.8784ZM222.905 31.3295C223.895 31.3295 225.01 31.3791 226.25 31.4797L226.412 29.4862C225.129 29.3823 223.96 29.3295 222.905 29.3295V31.3295ZM226.278 31.4816C227.547 31.5483 228.568 31.6639 229.356 31.8215L229.749 29.8603C228.832 29.677 227.706 29.5539 226.383 29.4843L226.278 31.4816ZM228.552 30.8409V47.8693H230.552V30.8409H228.552ZM229.881 46.9248C228.99 46.6148 227.656 46.3666 225.939 46.1605L225.7 48.1463C227.392 48.3493 228.547 48.5784 229.224 48.8138L229.881 46.9248ZM225.961 46.1635C224.247 45.9186 222.58 45.7955 220.962 45.7955V47.7955C222.479 47.7955 224.051 47.9109 225.678 48.1434L225.961 46.1635ZM220.962 45.7955C217.437 45.7955 214.235 46.5624 211.381 48.116L212.337 49.8726C214.869 48.4944 217.736 47.7955 220.962 47.7955V45.7955ZM211.385 48.1138C208.57 49.6298 206.34 51.7496 204.712 54.4628L206.427 55.4918C207.867 53.0913 209.831 51.2225 212.333 49.8748L211.385 48.1138ZM204.712 54.4628C203.074 57.1931 202.268 60.3241 202.268 63.8239H204.268C204.268 60.6418 204.997 57.875 206.427 55.4918L204.712 54.4628ZM202.268 63.8239V110H204.268V63.8239H202.268ZM203.268 109H184.757V111H203.268V109ZM251.758 108.926L251.342 109.836L251.352 109.84L251.758 108.926ZM242.349 100.949L241.511 101.494L241.514 101.5L242.349 100.949ZM241.377 76.9659L240.506 76.4742L241.377 76.9659ZM248.076 70.0114L247.553 69.1593V69.1594L248.076 70.0114ZM257.639 66.0739L257.881 67.044L257.888 67.0424L257.639 66.0739ZM268.735 64.0795L268.632 63.0849L268.629 63.0852L268.735 64.0795ZM279.934 62.8011L280.064 63.7927L280.075 63.7911L279.934 62.8011ZM286.173 60.9602L286.707 61.8057L286.712 61.8021L286.173 60.9602ZM284.741 47.767L285.42 47.0331L284.741 47.767ZM264.082 47.5625L263.485 46.76L263.48 46.7637L264.082 47.5625ZM258.764 54.5682L258.623 55.5583L259.442 55.6746L259.71 54.8916L258.764 54.5682ZM241.479 52.1136L240.518 51.8389L240.203 52.9423L241.339 53.1037L241.479 52.1136ZM248.229 40.1477L248.944 40.8472L248.948 40.8434L248.229 40.1477ZM259.735 32.8864L260.068 33.8292L260.075 33.827L259.735 32.8864ZM296.349 36.1591L295.798 36.994L295.805 36.9982L296.349 36.1591ZM303.815 44.392L302.935 44.8667L302.938 44.8733L303.815 44.392ZM306.678 110V111H307.678V110H306.678ZM288.883 110H287.883V111H288.883V110ZM288.883 99.2102H289.883V98.2102H288.883V99.2102ZM288.269 99.2102V98.2102H287.66L287.38 98.7519L288.269 99.2102ZM283.514 105.347L284.195 106.078L284.196 106.078L283.514 105.347ZM275.894 109.898L276.242 110.835L276.248 110.833L275.894 109.898ZM279.678 95.7841L280.152 96.665L280.16 96.6603L279.678 95.7841ZM285.968 89.8523L285.115 89.3308L285.11 89.3395L285.968 89.8523ZM288.218 72.5682H289.218V70.4492L287.582 71.7962L288.218 72.5682ZM285.252 73.8977L284.971 72.938L284.965 72.9399L285.252 73.8977ZM280.65 74.9716L280.827 75.9558L280.65 74.9716ZM271.241 76.4034L271.375 77.3943L271.378 77.3939L271.241 76.4034ZM263.826 78.2443L263.462 77.3129L263.826 78.2443ZM258.661 81.8239L259.427 82.4675L259.434 82.459L258.661 81.8239ZM260.502 95.375L259.93 96.1948L260.502 95.375ZM265.207 110.585C260.35 110.585 256.008 109.721 252.164 108.012L251.352 109.84C255.485 111.677 260.109 112.585 265.207 112.585V110.585ZM252.173 108.017C248.383 106.285 245.395 103.747 243.183 100.398L241.514 101.5C243.939 105.173 247.223 107.954 251.342 109.836L252.173 108.017ZM243.187 100.404C241.03 97.0882 239.923 92.9589 239.923 87.9602H237.923C237.923 93.257 239.099 97.7868 241.511 101.494L243.187 100.404ZM239.923 87.9602C239.923 83.6455 240.72 80.1637 242.248 77.4576L240.506 76.4742C238.762 79.5636 237.923 83.4113 237.923 87.9602H239.923ZM242.248 77.4576C243.801 74.7072 245.915 72.5131 248.6 70.8634L247.553 69.1594C244.578 70.9869 242.226 73.4292 240.506 76.4742L242.248 77.4576ZM248.6 70.8634C251.334 69.1833 254.425 67.9081 257.881 67.044L257.396 65.1037C253.761 66.0124 250.477 67.3621 247.553 69.1593L248.6 70.8634ZM257.888 67.0424C261.419 66.1344 265.07 65.478 268.842 65.0739L268.629 63.0852C264.764 63.4993 261.018 64.1724 257.39 65.1054L257.888 67.0424ZM268.838 65.0742C273.445 64.5965 277.188 64.1693 280.064 63.7927L279.804 61.8096C276.953 62.183 273.23 62.6081 268.632 63.0849L268.838 65.0742ZM280.075 63.7911C282.977 63.3766 285.228 62.7396 286.707 61.8057L285.639 60.1147C284.526 60.8172 282.619 61.4074 279.793 61.8112L280.075 63.7911ZM286.712 61.8021C288.368 60.7408 289.167 59.0869 289.167 57.0227H287.167C287.167 58.504 286.637 59.4751 285.633 60.1183L286.712 61.8021ZM289.167 57.0227V56.7159H287.167V57.0227H289.167ZM289.167 56.7159C289.167 52.6561 287.956 49.3794 285.42 47.0331L284.062 48.501C286.094 50.3819 287.167 53.0712 287.167 56.7159H289.167ZM285.42 47.0331C282.891 44.6925 279.322 43.5966 274.872 43.5966V45.5966C279.012 45.5966 282.023 46.6143 284.062 48.501L285.42 47.0331ZM274.872 43.5966C270.2 43.5966 266.37 44.6148 263.485 46.76L264.678 48.365C267.112 46.5557 270.475 45.5966 274.872 45.5966V43.5966ZM263.48 46.7637C260.721 48.8423 258.812 51.3342 257.817 54.2448L259.71 54.8916C260.556 52.4158 262.193 50.2373 264.683 48.3613L263.48 46.7637ZM258.904 53.5781L241.62 51.1236L241.339 53.1037L258.623 55.5583L258.904 53.5781ZM242.441 52.3884C243.764 47.7581 245.936 43.9206 248.944 40.8472L247.515 39.4483C244.25 42.784 241.922 46.9237 240.518 51.8389L242.441 52.3884ZM248.948 40.8434C251.97 37.7232 255.67 35.3835 260.068 33.8292L259.402 31.9435C254.732 33.5938 250.762 36.095 247.511 39.452L248.948 40.8434ZM260.075 33.827C264.486 32.2349 269.381 31.4318 274.769 31.4318V29.4318C269.181 29.4318 264.053 30.2651 259.396 31.9457L260.075 33.827ZM274.769 31.4318C278.474 31.4318 282.164 31.8657 285.84 32.7345L286.3 30.7882C282.476 29.8843 278.632 29.4318 274.769 29.4318V31.4318ZM285.84 32.7345C289.481 33.595 292.798 35.0154 295.798 36.9939L296.899 35.3242C293.696 33.2119 290.16 31.7005 286.3 30.7882L285.84 32.7345ZM295.805 36.9982C298.757 38.9119 301.134 41.5267 302.935 44.8667L304.695 43.9174C302.746 40.3028 300.146 37.429 296.893 35.32L295.805 36.9982ZM302.938 44.8733C304.745 48.1639 305.678 52.3329 305.678 57.4318H307.678C307.678 52.0989 306.703 47.5747 304.691 43.9108L302.938 44.8733ZM305.678 57.4318V110H307.678V57.4318H305.678ZM306.678 109H288.883V111H306.678V109ZM289.883 110V99.2102H287.883V110H289.883ZM288.883 98.2102H288.269V100.21H288.883V98.2102ZM287.38 98.7519C286.315 100.818 284.804 102.774 282.831 104.616L284.196 106.078C286.314 104.101 287.974 101.966 289.158 99.6685L287.38 98.7519ZM282.832 104.615C280.932 106.386 278.51 107.84 275.541 108.962L276.248 110.833C279.415 109.637 282.072 108.057 284.195 106.078L282.832 104.615ZM275.547 108.96C272.649 110.035 269.209 110.585 265.207 110.585V112.585C269.386 112.585 273.072 112.011 276.242 110.835L275.547 108.96ZM270.014 98.983C273.862 98.983 277.253 98.2233 280.152 96.6649L279.205 94.9033C276.65 96.2767 273.597 96.983 270.014 96.983V98.983ZM280.16 96.6603C283.029 95.0826 285.262 92.9854 286.827 90.365L285.11 89.3395C283.743 91.6283 281.782 93.4856 279.196 94.9079L280.16 96.6603ZM286.821 90.3737C288.418 87.761 289.218 84.9042 289.218 81.8239H287.218C287.218 84.539 286.518 87.0345 285.115 89.3308L286.821 90.3737ZM289.218 81.8239V72.5682H287.218V81.8239H289.218ZM287.582 71.7962C287.165 72.1401 286.338 72.5379 284.971 72.938L285.533 74.8575C286.962 74.4394 288.112 73.9509 288.854 73.3401L287.582 71.7962ZM284.965 72.9399C283.644 73.3361 282.148 73.6859 280.473 73.9874L280.827 75.9558C282.561 75.6436 284.133 75.2775 285.54 74.8556L284.965 72.9399ZM280.473 73.9874C278.78 74.2921 277.104 74.5629 275.446 74.7998L275.729 76.7797C277.412 76.5393 279.111 76.2647 280.827 75.9558L280.473 73.9874ZM275.446 74.7998C273.776 75.0383 272.329 75.2427 271.103 75.4129L271.378 77.3939C272.607 77.2232 274.058 77.0185 275.729 76.7797L275.446 74.7998ZM271.106 75.4125C268.281 75.7962 265.73 76.4269 263.462 77.3129L264.19 79.1758C266.286 78.3572 268.678 77.7606 271.375 77.3943L271.106 75.4125ZM263.462 77.3129C261.15 78.2161 259.277 79.5007 257.889 81.1888L259.434 82.459C260.568 81.0789 262.139 79.977 264.19 79.1758L263.462 77.3129ZM257.896 81.1803C256.452 82.8974 255.769 85.0848 255.769 87.6534H257.769C257.769 85.4493 258.348 83.7503 259.427 82.4675L257.896 81.1803ZM255.769 87.6534C255.769 91.3425 257.137 94.2438 259.93 96.1948L261.075 94.5552C258.89 93.0289 257.769 90.7825 257.769 87.6534H255.769ZM259.93 96.1948C262.626 98.0788 266.012 98.983 270.014 98.983V96.983C266.311 96.983 263.355 96.1485 261.075 94.5552L259.93 96.1948ZM366.674 31.4545H367.674V30.4545H366.674V31.4545ZM366.674 45.7727V46.7727H367.674V45.7727H366.674ZM321.52 45.7727H320.52V46.7727H321.52V45.7727ZM321.52 31.4545V30.4545H320.52V31.4545H321.52ZM332.668 12.6364V11.6364H331.668V12.6364H332.668ZM351.179 12.6364H352.179V11.6364H351.179V12.6364ZM352.304 92.1023L351.433 92.5936L351.441 92.607L351.449 92.6201L352.304 92.1023ZM355.372 94.7614L355.019 95.6966L355.372 94.7614ZM362.736 95.2216L362.566 94.2361L362.56 94.2372L362.736 95.2216ZM364.986 94.7614L365.964 94.5507L365.742 93.5247L364.728 93.7951L364.986 94.7614ZM368.105 109.233L368.431 110.178L369.27 109.889L369.083 109.022L368.105 109.233ZM363.861 110.358L363.644 109.382L363.64 109.383L363.861 110.358ZM357.213 111.074L357.187 110.074L357.184 110.074L357.213 111.074ZM344.685 108.977L344.296 109.899L344.303 109.902L344.685 108.977ZM335.838 101.716L335.002 102.265L335.006 102.271L335.838 101.716ZM332.668 89.4432L333.668 89.4501V89.4432H332.668ZM365.674 31.4545V45.7727H367.674V31.4545H365.674ZM366.674 44.7727H321.52V46.7727H366.674V44.7727ZM322.52 45.7727V31.4545H320.52V45.7727H322.52ZM321.52 32.4545H366.674V30.4545H321.52V32.4545ZM332.668 13.6364H351.179V11.6364H332.668V13.6364ZM350.179 12.6364V86.375H352.179V12.6364H350.179ZM350.179 86.375C350.179 88.9389 350.561 91.0477 351.433 92.5936L353.175 91.611C352.547 90.4977 352.179 88.7884 352.179 86.375H350.179ZM351.449 92.6201C352.334 94.0821 353.522 95.1305 355.019 95.6966L355.726 93.8261C354.7 93.4376 353.843 92.7134 353.16 91.5845L351.449 92.6201ZM355.019 95.6966C356.407 96.2222 357.927 96.4773 359.566 96.4773V94.4773C358.136 94.4773 356.86 94.2551 355.726 93.8261L355.019 95.6966ZM359.566 96.4773C360.773 96.4773 361.889 96.3886 362.912 96.206L362.56 94.2372C361.674 94.3955 360.677 94.4773 359.566 94.4773V96.4773ZM362.906 96.2071C363.903 96.0351 364.688 95.8757 365.244 95.7276L364.728 93.7951C364.261 93.9197 363.546 94.0671 362.566 94.2361L362.906 96.2071ZM364.009 94.9721L367.128 109.444L369.083 109.022L365.964 94.5507L364.009 94.9721ZM367.779 108.288C366.844 108.61 365.472 108.975 363.644 109.382L364.078 111.334C365.932 110.922 367.389 110.538 368.431 110.178L367.779 108.288ZM363.64 109.383C361.918 109.773 359.772 110.007 357.187 110.074L357.239 112.074C359.905 112.004 362.191 111.761 364.082 111.333L363.64 109.383ZM357.184 110.074C352.667 110.207 348.634 109.526 345.067 108.053L344.303 109.902C348.168 111.497 352.487 112.213 357.243 112.073L357.184 110.074ZM345.074 108.056C341.533 106.562 338.741 104.267 336.67 101.161L335.006 102.271C337.3 105.711 340.405 108.256 344.296 109.899L345.074 108.056ZM336.674 101.167C334.66 98.097 333.635 94.2121 333.668 89.4501L331.668 89.4362C331.633 94.4925 332.722 98.7894 335.002 102.265L336.674 101.167ZM333.668 89.4432V12.6364H331.668V89.4432H333.668ZM397.79 106.472L397.275 107.329L397.79 106.472ZM384.699 92.3068L383.806 92.758L383.808 92.762L384.699 92.3068ZM384.699 49.7102L383.807 49.257L383.805 49.261L384.699 49.7102ZM397.79 35.4943L398.304 36.3518L397.79 35.4943ZM437.676 35.4943L437.161 36.3518L437.676 35.4943ZM450.716 49.7102L449.822 50.1594L449.824 50.1634L450.716 49.7102ZM450.716 92.3068L449.825 91.8516L449.823 91.8556L450.716 92.3068ZM437.676 106.472L437.161 105.614L437.676 106.472ZM428.267 93.2784L428.9 94.0528L428.905 94.0482L428.267 93.2784ZM434.505 83.9716L433.564 83.6332L433.562 83.6405L434.505 83.9716ZM434.505 57.9432L433.561 58.2717L433.564 58.2816L434.505 57.9432ZM428.267 48.5852L428.905 47.8155L428.267 48.5852ZM407.199 48.5852L406.565 47.8117L406.56 47.8155L407.199 48.5852ZM400.909 57.9432L399.967 57.6074L399.965 57.6121L400.909 57.9432ZM400.909 83.9716L399.965 84.3027L399.968 84.31L400.909 83.9716ZM407.199 93.2784L406.56 94.0482L406.57 94.0565L407.199 93.2784ZM417.733 110.534C410.212 110.534 403.749 108.881 398.304 105.614L397.275 107.329C403.08 110.812 409.912 112.534 417.733 112.534V110.534ZM398.304 105.614C392.846 102.339 388.61 97.76 385.589 91.8516L383.808 92.762C386.992 98.99 391.483 103.854 397.275 107.329L398.304 105.614ZM385.591 91.8556C382.606 85.9519 381.096 79.021 381.096 71.0341H379.096C379.096 79.2744 380.655 86.5254 383.806 92.758L385.591 91.8556ZM381.096 71.0341C381.096 63.0473 382.606 56.0985 385.592 50.1594L383.805 49.261C380.655 55.5265 379.096 62.7936 379.096 71.0341H381.096ZM385.59 50.1634C388.611 44.221 392.847 39.6258 398.304 36.3518L397.275 34.6368C391.482 38.1128 386.991 42.9949 383.807 49.257L385.59 50.1634ZM398.304 36.3518C403.749 33.0848 410.212 31.4318 417.733 31.4318V29.4318C409.912 29.4318 403.08 31.1538 397.275 34.6368L398.304 36.3518ZM417.733 31.4318C425.253 31.4318 431.716 33.0848 437.161 36.3518L438.19 34.6368C432.385 31.1538 425.553 29.4318 417.733 29.4318V31.4318ZM437.161 36.3518C442.617 39.6252 446.835 44.2191 449.822 50.1594L451.609 49.261C448.46 42.9968 443.985 38.1134 438.19 34.6368L437.161 36.3518ZM449.824 50.1634C452.843 56.1015 454.369 63.0489 454.369 71.0341H456.369C456.369 62.792 454.793 55.5235 451.607 49.257L449.824 50.1634ZM454.369 71.0341C454.369 79.0194 452.843 85.9488 449.825 91.8516L451.606 92.762C454.793 86.5285 456.369 79.276 456.369 71.0341H454.369ZM449.823 91.8556C446.837 97.7619 442.619 102.34 437.161 105.614L438.19 107.329C443.983 103.853 448.458 98.9881 451.608 92.758L449.823 91.8556ZM437.161 105.614C431.716 108.881 425.253 110.534 417.733 110.534V112.534C425.553 112.534 432.385 110.812 438.19 107.329L437.161 105.614ZM417.835 97.7045C422.188 97.7045 425.899 96.5046 428.9 94.0528L427.634 92.504C425.044 94.6204 421.8 95.7045 417.835 95.7045V97.7045ZM428.905 94.0482C431.858 91.5993 434.034 88.3368 435.449 84.3027L433.562 83.6405C432.25 87.3791 430.266 90.3212 427.628 92.5087L428.905 94.0482ZM435.446 84.31C436.889 80.2996 437.602 75.8534 437.602 70.983H435.602C435.602 75.658 434.918 79.8708 433.564 83.6332L435.446 84.31ZM437.602 70.983C437.602 66.0793 436.889 61.6159 435.446 57.6048L433.564 58.2816C434.917 62.0432 435.602 66.273 435.602 70.983H437.602ZM435.45 57.6147C434.035 53.5471 431.86 50.2659 428.905 47.8155L427.628 49.355C430.264 51.5409 432.248 54.4984 433.561 58.2717L435.45 57.6147ZM428.905 47.8155C425.905 45.3271 422.191 44.108 417.835 44.108V46.108C421.797 46.108 425.038 47.2069 427.628 49.355L428.905 47.8155ZM417.835 44.108C413.383 44.108 409.602 45.3236 406.565 47.8117L407.832 49.3588C410.454 47.2105 413.765 46.108 417.835 46.108V44.108ZM406.56 47.8155C403.607 50.2643 401.416 53.5428 399.967 57.6074L401.851 58.279C403.197 54.5027 405.199 51.5425 407.837 49.355L406.56 47.8155ZM399.965 57.6121C398.559 61.621 397.863 66.0818 397.863 70.983H399.863C399.863 66.2704 400.532 62.0381 401.852 58.2743L399.965 57.6121ZM397.863 70.983C397.863 75.8509 398.559 80.2945 399.965 84.3027L401.852 83.6405C400.532 79.8759 399.863 75.6605 399.863 70.983H397.863ZM399.968 84.31C401.418 88.3411 403.609 91.6009 406.56 94.0482L407.837 92.5087C405.197 90.3196 403.196 87.3748 401.85 83.6332L399.968 84.31ZM406.57 94.0565C409.607 96.508 413.386 97.7045 417.835 97.7045V95.7045C413.761 95.7045 410.449 94.617 407.827 92.5003L406.57 94.0565ZM487.559 106.472L487.044 107.329L487.559 106.472ZM474.468 92.3068L473.576 92.758L473.578 92.762L474.468 92.3068ZM474.468 49.7102L473.577 49.257L473.575 49.261L474.468 49.7102ZM487.559 35.4943L488.073 36.3518L487.559 35.4943ZM527.445 35.4943L526.931 36.3518L527.445 35.4943ZM540.485 49.7102L539.592 50.1594L539.594 50.1634L540.485 49.7102ZM540.485 92.3068L539.595 91.8516L539.593 91.8556L540.485 92.3068ZM527.445 106.472L526.931 105.614L527.445 106.472ZM518.036 93.2784L518.669 94.0528L518.674 94.0482L518.036 93.2784ZM524.275 83.9716L523.334 83.6332L523.331 83.6405L524.275 83.9716ZM524.275 57.9432L523.33 58.2717L523.334 58.2816L524.275 57.9432ZM518.036 48.5852L518.674 47.8155L518.036 48.5852ZM496.968 48.5852L496.334 47.8117L496.33 47.8155L496.968 48.5852ZM490.678 57.9432L489.736 57.6074L489.735 57.6121L490.678 57.9432ZM490.678 83.9716L489.735 84.3027L489.737 84.31L490.678 83.9716ZM496.968 93.2784L496.33 94.0482L496.34 94.0565L496.968 93.2784ZM507.502 110.534C499.982 110.534 493.518 108.881 488.073 105.614L487.044 107.329C492.849 110.812 499.681 112.534 507.502 112.534V110.534ZM488.073 105.614C482.615 102.339 478.379 97.76 475.358 91.8516L473.578 92.762C476.762 98.99 481.253 103.854 487.044 107.329L488.073 105.614ZM475.36 91.8556C472.375 85.9519 470.866 79.021 470.866 71.0341H468.866C468.866 79.2744 470.424 86.5254 473.576 92.758L475.36 91.8556ZM470.866 71.0341C470.866 63.0473 472.375 56.0985 475.361 50.1594L473.575 49.261C470.424 55.5265 468.866 62.7936 468.866 71.0341H470.866ZM475.359 50.1634C478.38 44.221 482.617 39.6258 488.073 36.3518L487.044 34.6368C481.251 38.1128 476.76 42.9949 473.577 49.257L475.359 50.1634ZM488.073 36.3518C493.518 33.0848 499.982 31.4318 507.502 31.4318V29.4318C499.681 29.4318 492.849 31.1538 487.044 34.6368L488.073 36.3518ZM507.502 31.4318C515.022 31.4318 521.486 33.0848 526.931 36.3518L527.96 34.6368C522.155 31.1538 515.323 29.4318 507.502 29.4318V31.4318ZM526.931 36.3518C532.386 39.6252 536.605 44.2191 539.592 50.1594L541.378 49.261C538.229 42.9968 533.754 38.1134 527.96 34.6368L526.931 36.3518ZM539.594 50.1634C542.612 56.1015 544.138 63.0489 544.138 71.0341H546.138C546.138 62.792 544.562 55.5235 541.376 49.257L539.594 50.1634ZM544.138 71.0341C544.138 79.0194 542.612 85.9488 539.595 91.8516L541.375 92.762C544.562 86.5285 546.138 79.276 546.138 71.0341H544.138ZM539.593 91.8556C536.606 97.7619 532.388 102.34 526.931 105.614L527.96 107.329C533.753 103.853 538.227 98.9881 541.377 92.758L539.593 91.8556ZM526.931 105.614C521.486 108.881 515.022 110.534 507.502 110.534V112.534C515.323 112.534 522.155 110.812 527.96 107.329L526.931 105.614ZM507.604 97.7045C511.957 97.7045 515.668 96.5046 518.669 94.0528L517.403 92.504C514.813 94.6204 511.57 95.7045 507.604 95.7045V97.7045ZM518.674 94.0482C521.628 91.5993 523.803 88.3368 525.218 84.3027L523.331 83.6405C522.019 87.3791 520.036 90.3212 517.398 92.5087L518.674 94.0482ZM525.216 84.31C526.658 80.2996 527.371 75.8534 527.371 70.983H525.371C525.371 75.658 524.687 79.8708 523.334 83.6332L525.216 84.31ZM527.371 70.983C527.371 66.0793 526.658 61.6159 525.216 57.6048L523.334 58.2816C524.687 62.0432 525.371 66.273 525.371 70.983H527.371ZM525.219 57.6147C523.805 53.5471 521.63 50.2659 518.674 47.8155L517.398 49.355C520.034 51.5409 522.018 54.4984 523.33 58.2717L525.219 57.6147ZM518.674 47.8155C515.674 45.3271 511.961 44.108 507.604 44.108V46.108C511.566 46.108 514.808 47.2069 517.398 49.355L518.674 47.8155ZM507.604 44.108C503.152 44.108 499.371 45.3236 496.334 47.8117L497.602 49.3588C500.224 47.2105 503.534 46.108 507.604 46.108V44.108ZM496.33 47.8155C493.377 50.2643 491.185 53.5428 489.736 57.6074L491.62 58.279C492.966 54.5027 494.968 51.5425 497.606 49.355L496.33 47.8155ZM489.735 57.6121C488.328 61.621 487.633 66.0818 487.633 70.983H489.633C489.633 66.2704 490.301 62.0381 491.622 58.2743L489.735 57.6121ZM487.633 70.983C487.633 75.8509 488.328 80.2945 489.735 84.3027L491.622 83.6405C490.301 79.8759 489.633 75.6605 489.633 70.983H487.633ZM489.737 84.31C491.187 88.3411 493.379 91.6009 496.33 94.0482L497.606 92.5087C494.967 90.3196 492.965 87.3748 491.619 83.6332L489.737 84.31ZM496.34 94.0565C499.377 96.508 503.156 97.7045 507.604 97.7045V95.7045C503.531 95.7045 500.218 94.617 497.596 92.5003L496.34 94.0565ZM563.01 110H562.01V111H563.01V110ZM563.01 31.4545V30.4545H562.01V31.4545H563.01ZM580.959 31.4545H581.959V30.4545H580.959V31.4545ZM580.959 44.5455H579.959V45.5455H580.959V44.5455ZM581.777 44.5455V45.5455H582.51L582.731 44.8466L581.777 44.5455ZM589.141 34.0625L589.718 34.8795L589.719 34.8784L589.141 34.0625ZM604.584 30.4829L604.503 31.4797L604.517 31.4808L604.531 31.4816L604.584 30.4829ZM607.806 30.8409H608.806V30.0211L608.002 29.8603L607.806 30.8409ZM607.806 47.8693L607.477 48.8138L608.806 49.2759V47.8693H607.806ZM604.073 47.1534L603.931 48.1434L603.942 48.1449L603.953 48.1463L604.073 47.1534ZM590.112 48.9943L590.587 49.8748L590.591 49.8726L590.112 48.9943ZM581.521 110V111H582.521V110H581.521ZM564.01 110V31.4545H562.01V110H564.01ZM563.01 32.4545H580.959V30.4545H563.01V32.4545ZM579.959 31.4545V44.5455H581.959V31.4545H579.959ZM580.959 45.5455H581.777V43.5455H580.959V45.5455ZM582.731 44.8466C584.105 40.4953 586.44 37.1932 589.718 34.8795L588.564 33.2455C584.887 35.8409 582.313 39.5274 580.824 44.2443L582.731 44.8466ZM589.719 34.8784C593.053 32.5152 596.855 31.3295 601.158 31.3295V29.3295C596.461 29.3295 592.251 30.6325 588.563 33.2466L589.719 34.8784ZM601.158 31.3295C602.148 31.3295 603.263 31.3791 604.503 31.4797L604.665 29.4862C603.383 29.3823 602.213 29.3295 601.158 29.3295V31.3295ZM604.531 31.4816C605.8 31.5483 606.821 31.6639 607.609 31.8215L608.002 29.8603C607.085 29.677 605.959 29.5539 604.637 29.4843L604.531 31.4816ZM606.806 30.8409V47.8693H608.806V30.8409H606.806ZM608.134 46.9248C607.243 46.6148 605.909 46.3666 604.192 46.1605L603.953 48.1463C605.646 48.3493 606.8 48.5784 607.477 48.8138L608.134 46.9248ZM604.214 46.1635C602.5 45.9186 600.834 45.7955 599.215 45.7955V47.7955C600.732 47.7955 602.304 47.9109 603.931 48.1434L604.214 46.1635ZM599.215 45.7955C595.69 45.7955 592.489 46.5624 589.634 48.116L590.591 49.8726C593.123 48.4944 595.99 47.7955 599.215 47.7955V45.7955ZM589.638 48.1138C586.823 49.6298 584.593 51.7496 582.965 54.4628L584.68 55.4918C586.12 53.0913 588.084 51.2225 590.586 49.8748L589.638 48.1138ZM582.965 54.4628C581.327 57.1931 580.521 60.3241 580.521 63.8239H582.521C582.521 60.6418 583.25 57.875 584.68 55.4918L582.965 54.4628ZM580.521 63.8239V110H582.521V63.8239H580.521ZM581.521 109H563.01V111H581.521V109Z" fill="url(#paint0_linear_1239_1115)"/>
<defs>
<linearGradient id="paint0_linear_1239_1115" x1="1234.47" y1="-32" x2="1125.17" y2="438.763" gradientUnits="userSpaceOnUse">
<stop offset="0.442444" stop-color="#29D9FF"/>
<stop offset="0.49988" stop-color="#F7B928"/>
<stop offset="0.58234" stop-color="#FF2407"/>
<stop offset="0.659736" stop-color="#0061BB"/>
<stop offset="0.79457" stop-color="#AB96E9"/>
</linearGradient>
</defs>
</svg>
