<svg width="48" height="48" viewBox="0 0 48 48" fill="none" xmlns="http://www.w3.org/2000/svg">
<path fill-rule="evenodd" clip-rule="evenodd" d="M40 29.9166V28.175C40 28.0139 39.846 27.8973 39.6947 27.9417L31.552 30.3195C31.508 30.3306 31.4694 30.3555 31.4393 30.389C30.5671 31.362 29.826 32.015 29.6297 32.1881L29.616 32.2001C29.1101 32.6333 28.4829 32.8695 27.823 32.8695H24.875V29.8334H27.218C27.2785 29.8334 27.3362 29.8112 27.3803 29.7723L27.6827 29.4917C27.812 29.3723 27.966 29.2278 28.1501 29.0417C28.1659 29.0259 28.1818 29.0098 28.1978 28.9937C28.2946 28.8963 28.3981 28.7921 28.4994 28.6778C28.6204 28.5584 28.7388 28.425 28.8487 28.2945C29.033 28.0944 29.209 27.8861 29.3932 27.6666C29.5253 27.5223 29.6463 27.3584 29.7645 27.1944C29.8965 27.0389 30.0257 26.864 30.1467 26.6973C30.1917 26.6304 30.2397 26.5628 30.2887 26.4938C30.3353 26.4279 30.383 26.3609 30.4299 26.2917C30.518 26.1583 30.606 26.0166 30.6803 25.8834C30.9112 25.5222 31.1065 25.1361 31.2715 24.75C31.3472 24.5847 31.4078 24.4106 31.4666 24.2412C31.474 24.2201 31.4814 24.1989 31.4887 24.1778C31.5548 23.9805 31.6098 23.7945 31.651 23.5972C31.7499 23.1333 31.7719 22.6722 31.728 22.2111C31.717 22.0667 31.706 21.925 31.673 21.7917V21.7695C31.662 21.675 31.6399 21.5694 31.6098 21.4722C31.5107 21.0222 31.3567 20.5722 31.1614 20.1306C31.0955 19.9667 31.0186 19.8 30.9443 19.6472C30.7682 19.3167 30.5839 18.9861 30.375 18.6667C30.3331 18.5992 30.2868 18.5309 30.2404 18.4626C30.2048 18.41 30.1693 18.3575 30.1357 18.3056C30.0034 18.0994 29.8546 17.9006 29.7101 17.7077C29.6776 17.6641 29.6451 17.6208 29.6132 17.5778C29.5279 17.4647 29.4347 17.3517 29.3408 17.2379C29.2893 17.1755 29.2376 17.1129 29.187 17.05C29.044 16.875 28.9038 16.7084 28.7608 16.5444C28.2492 15.9611 27.713 15.4334 27.2345 14.9834C27.1464 14.8944 27.0502 14.8056 26.9513 14.7195C26.5801 14.3778 26.2418 14.0805 25.9584 13.85C25.8733 13.7839 25.797 13.7187 25.726 13.6581C25.6776 13.6168 25.6317 13.5777 25.5872 13.5417C25.5014 13.477 25.4268 13.4197 25.3643 13.3716C25.3246 13.3411 25.2899 13.3143 25.26 13.2916C25.2379 13.275 25.2133 13.2639 25.1885 13.2555L24.875 13.1667V10.5444C24.875 10.1167 24.7045 9.73335 24.4323 9.45276C24.16 9.17222 23.7805 9 23.3625 9C22.5265 9 21.85 9.69165 21.85 10.5444V12.3111L21.6932 12.2667L21.267 12.1444L20.8793 12.0361C20.8793 12.0361 20.8769 12.0356 20.8756 12.0351C20.8738 12.0343 20.8714 12.0333 20.8683 12.0333H20.86L17.9175 11.2278C17.7882 11.1917 17.6782 11.3333 17.7442 11.4528L18.2145 12.3306C18.2412 12.398 18.275 12.4655 18.3098 12.5348C18.3322 12.5797 18.3551 12.6253 18.3767 12.6722C18.4538 12.8278 18.5307 12.9917 18.605 13.1556C18.671 13.3 18.737 13.4417 18.814 13.5972C18.8464 13.6703 18.8794 13.7444 18.9128 13.8194C19.0357 14.0951 19.165 14.385 19.2925 14.6972C19.4025 14.9611 19.5125 15.225 19.6087 15.5C19.8728 16.1917 20.123 16.9305 20.3403 17.6889C20.3943 17.8586 20.4375 18.0229 20.4813 18.1893C20.4999 18.2599 20.5186 18.3308 20.5382 18.4028L20.5685 18.5361C20.6565 18.8889 20.7335 19.2389 20.7886 19.5917C20.8325 19.8333 20.8736 20.0639 20.8958 20.2972C20.9287 20.5611 20.9617 20.825 20.9727 21.0889C20.9948 21.3306 21.0057 21.5834 21.0057 21.825C21.0057 22.4417 20.9507 23.0361 20.8215 23.5972C20.8134 23.6274 20.8053 23.6579 20.7972 23.6887C20.7609 23.8252 20.7234 23.9667 20.6785 24.1027C20.6379 24.2484 20.5852 24.3941 20.5306 24.5454C20.5112 24.599 20.4916 24.6531 20.4722 24.7083C20.4686 24.7181 20.465 24.728 20.4614 24.7379C20.4209 24.8478 20.3798 24.9599 20.3292 25.0695C20.057 25.7306 19.7187 26.3889 19.3695 27.0056C18.858 27.9195 18.3438 28.7223 17.9835 29.2389C17.9614 29.2724 17.9399 29.3042 17.9192 29.3346C17.8934 29.3727 17.8689 29.409 17.846 29.4444C17.7333 29.6055 17.8487 29.8334 18.044 29.8334H21.85V32.8695H18C16.966 32.8695 16.009 32.2778 15.547 31.3305C15.3077 30.8556 15.2142 30.3333 15.2693 29.8223C15.283 29.6694 15.1702 29.525 15.0163 29.525H7.23924C7.10723 29.525 7 29.6334 7 29.7666V29.9277C7 34.9389 11.0068 39 15.9512 39H29.902C32.5171 39 34.0019 36.593 35.4614 34.227C35.8683 33.5675 36.2731 32.9112 36.7 32.3111C37.4672 31.2333 39.3124 30.3777 39.8515 30.1445C39.9394 30.1056 40 30.0167 40 29.9166ZM9.07378 25.9472L8.95831 26.1304C8.85654 26.2888 8.96928 26.4999 9.16178 26.4999H16.3228C16.4025 26.4999 16.4768 26.4611 16.5208 26.3945C16.6143 26.25 16.7023 26.1 16.782 25.9472C17.4008 24.8972 17.9508 23.7611 18.1515 22.9222C18.6218 20.8833 17.618 17.6083 16.4548 14.9749C16.3778 14.7999 16.1385 14.7833 16.0368 14.9444L9.07378 25.9472Z" fill="white"/>
</svg>
