<svg width="48" height="48" viewBox="0 0 48 48" fill="none" xmlns="http://www.w3.org/2000/svg">
<g clip-path="url(#clip0_1280_472)">
<path d="M42 24C42 33.945 33.945 42 24 42C14.055 42 6 33.945 6 24C6 14.055 14.055 6 24 6C33.945 6 42 14.055 42 24ZM20.706 33.495C28.689 33.495 33.054 26.88 33.054 21.147C33.054 20.958 33.054 20.769 33.045 20.589C33.891 19.977 34.629 19.212 35.214 18.339C34.44 18.681 33.603 18.915 32.721 19.023C33.621 18.483 34.305 17.637 34.629 16.62C33.792 17.115 32.865 17.475 31.875 17.673C31.083 16.827 29.958 16.305 28.707 16.305C26.313 16.305 24.369 18.249 24.369 20.643C24.369 20.985 24.405 21.318 24.486 21.633C20.877 21.453 17.682 19.725 15.54 17.097C15.171 17.736 14.955 18.483 14.955 19.275C14.955 20.778 15.72 22.11 16.89 22.884C16.179 22.866 15.513 22.668 14.928 22.344C14.928 22.362 14.928 22.38 14.928 22.398C14.928 24.504 16.422 26.25 18.411 26.655C18.051 26.754 17.664 26.808 17.268 26.808C16.989 26.808 16.719 26.781 16.449 26.727C16.998 28.455 18.6 29.706 20.499 29.742C19.014 30.903 17.142 31.596 15.108 31.596C14.757 31.596 14.415 31.578 14.073 31.533C15.972 32.775 18.258 33.495 20.706 33.495Z" fill="white"/>
</g>
<defs>
<clipPath id="clip0_1280_472">
<rect width="36" height="36" fill="white" transform="translate(6 6)"/>
</clipPath>
</defs>
</svg>
