<svg width="3000" height="3000" viewBox="0 0 3000 3000" fill="none" xmlns="http://www.w3.org/2000/svg">
<rect width="3000" height="3000" fill="#141414"/>
<g filter="url(#filter0_df_665_269)">
<path d="M1010.8 1131.91C1008.57 1132.44 1006.56 1130.43 1007.09 1128.2L1020.32 1073.01C1020.87 1070.7 1020.87 1068.3 1020.32 1065.99L1007.09 1010.8C1006.56 1008.57 1008.57 1006.56 1010.8 1007.09L1065.99 1020.32C1068.3 1020.87 1070.7 1020.87 1073.01 1020.32L1071.61 1014.48L1073.01 1020.32L1128.2 1007.09C1130.43 1006.56 1132.44 1008.57 1131.91 1010.8L1118.68 1065.99C1118.13 1068.3 1118.13 1070.7 1118.68 1073.01L1124.52 1071.61L1118.68 1073.01L1131.91 1128.2C1132.44 1130.43 1130.43 1132.44 1128.2 1131.91L1073.01 1118.68C1070.7 1118.13 1068.3 1118.13 1065.99 1118.68L1010.8 1131.91Z" stroke="url(#paint0_linear_665_269)" stroke-width="12" shape-rendering="crispEdges"/>
</g>
<g filter="url(#filter1_df_665_269)">
<path d="M1872.09 1007.8C1871.56 1005.57 1873.57 1003.56 1875.8 1004.09L1930.99 1017.32C1933.3 1017.87 1935.7 1017.87 1938.01 1017.32L1993.2 1004.09C1995.43 1003.56 1997.44 1005.57 1996.91 1007.8L1983.68 1062.99L1989.52 1064.39L1983.68 1062.99C1983.13 1065.3 1983.13 1067.7 1983.68 1070.01L1989.52 1068.61L1983.68 1070.01L1996.91 1125.2C1997.44 1127.43 1995.43 1129.44 1993.2 1128.91L1938.01 1115.68C1935.7 1115.13 1933.3 1115.13 1930.99 1115.68L1875.8 1128.91C1873.57 1129.44 1871.56 1127.43 1872.09 1125.2L1885.32 1070.01C1885.87 1067.7 1885.87 1065.3 1885.32 1062.99L1872.09 1007.8Z" stroke="url(#paint1_linear_665_269)" stroke-width="12" shape-rendering="crispEdges"/>
</g>
<g filter="url(#filter2_df_665_269)">
<path d="M1023.8 1848.09C1021.57 1847.56 1019.56 1849.56 1020.09 1851.8L1033.32 1906.99C1033.87 1909.29 1033.87 1911.7 1033.32 1914.01L1020.09 1969.2C1019.56 1971.43 1021.57 1973.44 1023.8 1972.91L1078.99 1959.68C1081.3 1959.13 1083.7 1959.13 1086.01 1959.68L1084.61 1965.52L1086.01 1959.68L1141.2 1972.91C1143.43 1973.44 1145.44 1971.43 1144.91 1969.2L1131.68 1914.01C1131.13 1911.7 1131.13 1909.29 1131.68 1906.99L1137.52 1908.38L1131.68 1906.99L1144.91 1851.8C1145.44 1849.56 1143.43 1847.56 1141.2 1848.09L1086.01 1861.31C1083.7 1861.87 1081.3 1861.87 1078.99 1861.31L1023.8 1848.09Z" stroke="url(#paint2_linear_665_269)" stroke-width="12" shape-rendering="crispEdges"/>
</g>
<g filter="url(#filter3_df_665_269)">
<path d="M1853.09 1972.2C1852.56 1974.43 1854.57 1976.44 1856.8 1975.91L1911.99 1962.68C1914.3 1962.13 1916.7 1962.13 1919.01 1962.68L1974.2 1975.91C1976.43 1976.44 1978.44 1974.43 1977.91 1972.2L1964.68 1917.01L1970.52 1915.61L1964.68 1917.01C1964.13 1914.7 1964.13 1912.29 1964.68 1909.99L1970.52 1911.38L1964.68 1909.99L1977.91 1854.8C1978.44 1852.56 1976.43 1850.56 1974.2 1851.09L1919.01 1864.31C1916.7 1864.87 1914.3 1864.87 1911.99 1864.31L1856.8 1851.09C1854.57 1850.56 1852.56 1852.56 1853.09 1854.8L1866.32 1909.99C1866.87 1912.29 1866.87 1914.7 1866.32 1917.01L1853.09 1972.2Z" stroke="url(#paint3_linear_665_269)" stroke-width="12" shape-rendering="crispEdges"/>
</g>
<g filter="url(#filter4_df_665_269)">
<path d="M864.615 905.966C839.762 905.966 819.615 885.595 819.615 860.466C819.615 835.337 839.762 814.966 864.615 814.966C889.468 814.966 909.615 835.337 909.615 860.466C909.615 885.595 889.468 905.966 864.615 905.966Z" stroke="url(#paint4_linear_665_269)" stroke-width="12" shape-rendering="crispEdges"/>
</g>
<g filter="url(#filter5_df_665_269)">
<path d="M2112 917C2087.15 917 2067 896.629 2067 871.5C2067 846.371 2087.15 826 2112 826C2136.85 826 2157 846.371 2157 871.5C2157 896.629 2136.85 917 2112 917Z" stroke="url(#paint5_linear_665_269)" stroke-width="12" shape-rendering="crispEdges"/>
</g>
<g filter="url(#filter6_df_665_269)">
<path d="M875 2165C850.147 2165 830 2145.07 830 2120.5C830 2095.92 850.147 2076 875 2076C899.853 2076 920 2095.92 920 2120.5C920 2145.07 899.853 2165 875 2165Z" stroke="url(#paint6_linear_665_269)" stroke-width="12" shape-rendering="crispEdges"/>
</g>
<g filter="url(#filter7_df_665_269)">
<path d="M2130 2174C2105.15 2174 2085 2154.07 2085 2129.5C2085 2104.92 2105.15 2085 2130 2085C2154.85 2085 2175 2104.92 2175 2129.5C2175 2154.07 2154.85 2174 2130 2174Z" stroke="url(#paint7_linear_665_269)" stroke-width="12" shape-rendering="crispEdges"/>
</g>
<g style="mix-blend-mode:color-dodge" filter="url(#filter8_f_665_269)">
<path d="M1865.69 1270.05C1867.58 1277.91 1860.5 1284.98 1852.65 1283.1L1788.85 1267.81C1785.95 1267.12 1782.89 1267.65 1780.39 1269.29L1638.84 1362.14C1629.02 1368.58 1617.42 1356.97 1623.86 1347.16L1716.72 1205.61C1718.36 1203.12 1718.89 1200.06 1718.19 1197.15L1702.91 1133.35C1701.03 1125.5 1708.1 1118.42 1715.95 1120.31L1781.78 1136.08C1783.44 1136.48 1785.16 1136.48 1786.82 1136.08L1852.65 1120.31C1860.5 1118.42 1867.58 1125.5 1865.69 1133.35L1849.92 1199.18C1849.52 1200.84 1849.52 1202.57 1849.92 1204.23L1865.69 1270.05Z" stroke="url(#paint8_linear_665_269)" stroke-width="11"/>
</g>
<g filter="url(#filter9_f_665_269)">
<path d="M1500.41 1543.4C1475.49 1544.58 1454.33 1525.34 1453.14 1500.41V1500.41C1451.96 1475.49 1471.2 1454.33 1496.13 1453.14V1453.14C1521.05 1451.96 1542.21 1471.2 1543.4 1496.13V1496.13C1544.58 1521.05 1525.34 1542.21 1500.41 1543.4V1543.4Z" stroke="url(#paint9_linear_665_269)" stroke-width="10"/>
</g>
<g style="mix-blend-mode:color-dodge" filter="url(#filter10_f_665_269)">
<path d="M1288.05 1138.31C1295.91 1136.43 1302.98 1143.48 1301.1 1151.3L1285.81 1214.84C1285.12 1217.73 1285.65 1220.77 1287.29 1223.26L1380.14 1364.23C1386.58 1374 1374.97 1385.56 1365.16 1379.15L1223.61 1286.67C1221.12 1285.04 1218.06 1284.51 1215.15 1285.2L1151.35 1300.42C1143.5 1302.3 1136.42 1295.25 1138.31 1287.43L1154.08 1221.88C1154.48 1220.23 1154.48 1218.5 1154.08 1216.85L1138.31 1151.3C1136.42 1143.48 1143.5 1136.43 1151.35 1138.31L1217.18 1154.01C1218.84 1154.41 1220.57 1154.41 1222.23 1154.01L1288.05 1138.31Z" stroke="url(#paint10_linear_665_269)" stroke-width="11"/>
</g>
<g style="mix-blend-mode:color-dodge">
<path d="M1853.69 1288.05C1855.58 1295.91 1848.5 1302.98 1840.65 1301.1L1776.85 1285.81C1773.95 1285.12 1770.89 1285.65 1768.39 1287.29L1626.84 1380.14C1617.02 1386.58 1605.42 1374.97 1611.86 1365.16L1704.72 1223.61C1706.36 1221.12 1706.89 1218.06 1706.19 1215.16L1690.91 1151.35C1689.03 1143.5 1696.1 1136.43 1703.95 1138.31L1769.78 1154.08C1771.44 1154.48 1773.16 1154.48 1774.82 1154.08L1840.65 1138.31C1848.5 1136.43 1855.58 1143.5 1853.69 1151.35L1837.92 1217.18C1837.52 1218.84 1837.52 1220.57 1837.92 1222.23L1853.69 1288.05Z" stroke="url(#paint11_linear_665_269)" stroke-width="11"/>
</g>
<g style="mix-blend-mode:color-dodge">
<path d="M1291.05 1139.31C1298.91 1137.43 1305.98 1144.48 1304.1 1152.3L1288.81 1215.84C1288.12 1218.73 1288.65 1221.77 1290.29 1224.26L1383.14 1365.23C1389.58 1375 1377.97 1386.56 1368.16 1380.15L1226.61 1287.67C1224.12 1286.04 1221.06 1285.51 1218.15 1286.2L1154.35 1301.42C1146.5 1303.3 1139.42 1296.25 1141.31 1288.43L1157.08 1222.88C1157.48 1221.23 1157.48 1219.5 1157.08 1217.85L1141.31 1152.3C1139.42 1144.48 1146.5 1137.43 1154.35 1139.31L1220.18 1155.01C1221.84 1155.41 1223.57 1155.41 1225.23 1155.01L1291.05 1139.31Z" stroke="url(#paint12_linear_665_269)" stroke-width="11"/>
</g>
<g filter="url(#filter11_f_665_269)">
<path d="M1689.33 1841.69C1681.45 1843.57 1674.34 1836.5 1676.23 1828.64L1691.58 1764.85C1692.28 1761.94 1691.74 1758.88 1690.1 1756.39L1596.86 1614.84C1590.4 1605.02 1602.06 1593.41 1611.91 1599.86L1754.04 1692.72C1756.54 1694.35 1759.61 1694.89 1762.53 1694.19L1826.59 1678.91C1834.48 1677.02 1841.58 1684.1 1839.69 1691.95L1823.85 1757.78C1823.46 1759.43 1823.46 1761.16 1823.85 1762.82L1839.69 1828.64C1841.58 1836.5 1834.48 1843.57 1826.59 1841.69L1760.49 1825.92C1758.83 1825.52 1757.09 1825.52 1755.43 1825.92L1689.33 1841.69Z" stroke="url(#paint13_linear_665_269)" stroke-width="11"/>
</g>
<path d="M1706.33 1854.69C1698.45 1856.57 1691.34 1849.5 1693.23 1841.64L1708.58 1777.85C1709.28 1774.94 1708.74 1771.88 1707.1 1769.39L1613.86 1627.84C1607.4 1618.02 1619.06 1606.41 1628.91 1612.86L1771.04 1705.72C1773.54 1707.35 1776.61 1707.89 1779.53 1707.19L1843.59 1691.91C1851.48 1690.02 1858.58 1697.1 1856.69 1704.95L1840.85 1770.78C1840.46 1772.43 1840.46 1774.16 1840.85 1775.82L1856.69 1841.64C1858.58 1849.5 1851.48 1856.57 1843.59 1854.69L1777.49 1838.92C1775.83 1838.52 1774.09 1838.52 1772.43 1838.92L1706.33 1854.69Z" stroke="url(#paint14_linear_665_269)" stroke-width="11"/>
<g filter="url(#filter12_f_665_269)">
<path d="M1138.31 1701.95C1136.42 1694.09 1143.52 1687.02 1151.41 1688.9L1215.47 1704.19C1218.38 1704.88 1221.46 1704.35 1223.96 1702.71L1366.09 1609.86C1375.95 1603.42 1387.6 1615.03 1381.14 1624.84L1287.89 1766.39C1286.25 1768.88 1285.71 1771.94 1286.41 1774.85L1301.76 1838.65C1303.65 1846.5 1296.55 1853.58 1288.66 1851.69L1222.57 1835.92C1220.9 1835.52 1219.17 1835.52 1217.5 1835.92L1151.41 1851.69C1143.52 1853.58 1136.42 1846.5 1138.31 1838.65L1154.15 1772.82C1154.54 1771.16 1154.54 1769.43 1154.15 1767.78L1138.31 1701.95Z" stroke="url(#paint15_linear_665_269)" stroke-width="11"/>
</g>
<path d="M1139.31 1706.95C1137.42 1699.09 1144.52 1692.02 1152.41 1693.9L1216.47 1709.19C1219.38 1709.88 1222.46 1709.35 1224.96 1707.71L1367.09 1614.86C1376.95 1608.42 1388.6 1620.03 1382.14 1629.84L1288.89 1771.39C1287.25 1773.88 1286.71 1776.94 1287.41 1779.85L1302.76 1843.65C1304.65 1851.5 1297.55 1858.58 1289.66 1856.69L1223.57 1840.92C1221.9 1840.52 1220.17 1840.52 1218.5 1840.92L1152.41 1856.69C1144.52 1858.58 1137.42 1851.5 1139.31 1843.65L1155.14 1777.82C1155.54 1776.16 1155.54 1774.43 1155.14 1772.78L1139.31 1706.95Z" stroke="url(#paint16_linear_665_269)" stroke-width="11"/>
<path d="M1015.2 1140.74C1008.61 1142.32 1002.68 1136.39 1004.26 1129.8L1017.48 1074.61C1017.81 1073.22 1017.81 1071.78 1017.48 1070.39L1004.26 1015.2C1002.68 1008.61 1008.61 1002.68 1015.2 1004.26L1070.39 1017.48C1071.78 1017.81 1073.22 1017.81 1074.61 1017.48L1129.8 1004.26C1136.39 1002.68 1142.32 1008.61 1140.74 1015.2L1127.52 1070.39C1127.19 1071.78 1127.19 1073.22 1127.52 1074.61L1140.74 1129.8C1142.32 1136.39 1136.39 1142.32 1129.8 1140.74L1074.61 1127.52C1073.22 1127.19 1071.78 1127.19 1070.39 1127.52L1015.2 1140.74Z" stroke="url(#paint17_linear_665_269)" stroke-width="10"/>
<path d="M1851.26 1015.2C1849.68 1008.61 1855.61 1002.68 1862.2 1004.26L1917.39 1017.48C1918.78 1017.81 1920.22 1017.81 1921.61 1017.48L1976.8 1004.26C1983.39 1002.68 1989.32 1008.61 1987.74 1015.2L1974.52 1070.39C1974.19 1071.78 1974.19 1073.22 1974.52 1074.61L1987.74 1129.8C1989.32 1136.39 1983.39 1142.32 1976.8 1140.74L1921.61 1127.52C1920.22 1127.19 1918.78 1127.19 1917.39 1127.52L1862.2 1140.74C1855.61 1142.32 1849.68 1136.39 1851.26 1129.8L1864.48 1074.61C1864.81 1073.22 1864.81 1071.78 1864.48 1070.39L1851.26 1015.2Z" stroke="url(#paint18_linear_665_269)" stroke-width="10"/>
<path d="M1016.2 1854.25C1009.61 1852.69 1003.68 1858.57 1005.26 1865.11L1018.48 1919.9C1018.81 1921.28 1018.81 1922.72 1018.48 1924.1L1005.26 1978.88C1003.68 1985.42 1009.61 1991.31 1016.2 1989.74L1071.39 1976.62C1072.78 1976.28 1074.22 1976.28 1075.61 1976.62L1130.8 1989.74C1137.39 1991.31 1143.32 1985.42 1141.74 1978.88L1128.52 1924.1C1128.19 1922.72 1128.19 1921.28 1128.52 1919.9L1141.74 1865.11C1143.32 1858.57 1137.39 1852.69 1130.8 1854.25L1075.61 1867.38C1074.22 1867.71 1072.78 1867.71 1071.39 1867.38L1016.2 1854.25Z" stroke="url(#paint19_linear_665_269)" stroke-width="10"/>
<path d="M1855.26 1979.8C1853.68 1986.39 1859.61 1992.32 1866.2 1990.74L1921.39 1977.52C1922.78 1977.18 1924.22 1977.18 1925.61 1977.52L1980.8 1990.74C1987.39 1992.32 1993.32 1986.39 1991.74 1979.8L1978.52 1924.61C1978.19 1923.22 1978.19 1921.77 1978.52 1920.38L1991.74 1865.19C1993.32 1858.61 1987.39 1852.68 1980.8 1854.26L1925.61 1867.48C1924.22 1867.81 1922.78 1867.81 1921.39 1867.48L1866.2 1854.26C1859.61 1852.68 1853.68 1858.61 1855.26 1865.19L1868.48 1920.38C1868.81 1921.77 1868.81 1923.22 1868.48 1924.61L1855.26 1979.8Z" stroke="url(#paint20_linear_665_269)" stroke-width="10"/>
<path d="M834.358 885.095C820.906 864.198 827.129 836.231 848.258 822.629V822.629C869.387 809.027 897.421 814.94 910.874 835.837V835.837C924.327 856.735 918.104 884.702 896.974 898.304V898.304C875.845 911.906 847.811 905.992 834.358 885.095V885.095Z" stroke="url(#paint21_linear_665_269)" stroke-width="10"/>
<path d="M2128 917C2103.15 917 2083 896.629 2083 871.5V871.5C2083 846.371 2103.15 826 2128 826V826C2152.85 826 2173 846.371 2173 871.5V871.5C2173 896.629 2152.85 917 2128 917V917Z" stroke="url(#paint22_linear_665_269)" stroke-width="10"/>
<path d="M840.492 2153.59C824.801 2134.32 827.53 2106.12 846.589 2090.6V2090.6C865.647 2075.08 893.818 2078.13 909.509 2097.4V2097.4C925.201 2116.67 922.471 2144.88 903.413 2160.39V2160.39C884.354 2175.91 856.184 2172.87 840.492 2153.59V2153.59Z" stroke="url(#paint23_linear_665_269)" stroke-width="10"/>
<path d="M2130.41 2168.4C2105.49 2169.58 2084.33 2150.33 2083.14 2125.41V2125.41C2081.96 2100.49 2101.2 2079.32 2126.13 2078.14V2078.14C2151.05 2076.96 2172.22 2096.2 2173.4 2121.13V2121.13C2174.58 2146.05 2155.34 2167.21 2130.41 2168.4V2168.4Z" stroke="url(#paint24_linear_665_269)" stroke-width="10"/>
<path d="M1500.41 1543.4C1475.49 1544.58 1454.33 1525.34 1453.14 1500.41V1500.41C1451.96 1475.49 1471.2 1454.33 1496.13 1453.14V1453.14C1521.05 1451.96 1542.21 1471.2 1543.4 1496.13V1496.13C1544.58 1521.05 1525.34 1542.21 1500.41 1543.4V1543.4Z" stroke="url(#paint25_linear_665_269)" stroke-width="10"/>
<g style="mix-blend-mode:color-dodge" filter="url(#filter13_f_665_269)">
<path fill-rule="evenodd" clip-rule="evenodd" d="M1503.92 648.486C1503.95 644.897 1501.07 641.96 1497.48 641.927C1493.89 641.894 1490.95 644.777 1490.92 648.367L1490.31 714.943C1490.23 722.961 1480.5 726.887 1474.88 721.165L1445.05 690.781C1442.54 688.219 1438.42 688.181 1435.86 690.696C1433.3 693.211 1433.26 697.326 1435.78 699.888L1465.61 730.273C1471.22 735.995 1467.12 745.652 1459.1 745.578L1402.52 745.056C1398.93 745.023 1396 747.906 1395.96 751.496C1395.93 755.086 1398.81 758.022 1402.4 758.056L1458.98 758.577C1467 758.651 1470.92 768.382 1465.2 773.999L1434.82 803.828C1432.26 806.343 1432.22 810.458 1434.73 813.02C1437.25 815.582 1441.36 815.62 1443.93 813.105L1474.31 783.275C1480.03 777.658 1489.69 781.763 1489.62 789.781L1489.06 850.358C1489.02 853.948 1491.91 856.885 1495.5 856.918C1499.09 856.951 1502.02 854.068 1502.06 850.478L1502.61 789.9C1502.69 781.883 1512.42 777.957 1518.04 783.678L1547.87 814.064C1550.38 816.625 1554.5 816.663 1557.06 814.148C1559.62 811.633 1559.66 807.518 1557.14 804.956L1527.31 774.572C1521.7 768.85 1525.8 759.194 1533.82 759.267L1590.4 759.789C1593.98 759.822 1596.92 756.939 1596.95 753.349C1596.99 749.76 1594.1 746.823 1590.52 746.79L1533.94 746.268C1525.92 746.194 1521.99 736.463 1527.72 730.846L1558.1 701.016C1560.66 698.501 1560.7 694.386 1558.19 691.824C1555.67 689.262 1551.56 689.224 1548.99 691.739L1518.61 721.568C1512.89 727.186 1503.23 723.081 1503.3 715.063L1503.92 648.486Z" fill="white"/>
<path fill-rule="evenodd" clip-rule="evenodd" d="M1503.92 648.486C1503.95 644.897 1501.07 641.96 1497.48 641.927C1493.89 641.894 1490.95 644.777 1490.92 648.367L1490.31 714.943C1490.23 722.961 1480.5 726.887 1474.88 721.165L1445.05 690.781C1442.54 688.219 1438.42 688.181 1435.86 690.696C1433.3 693.211 1433.26 697.326 1435.78 699.888L1465.61 730.273C1471.22 735.995 1467.12 745.652 1459.1 745.578L1402.52 745.056C1398.93 745.023 1396 747.906 1395.96 751.496C1395.93 755.086 1398.81 758.022 1402.4 758.056L1458.98 758.577C1467 758.651 1470.92 768.382 1465.2 773.999L1434.82 803.828C1432.26 806.343 1432.22 810.458 1434.73 813.02C1437.25 815.582 1441.36 815.62 1443.93 813.105L1474.31 783.275C1480.03 777.658 1489.69 781.763 1489.62 789.781L1489.06 850.358C1489.02 853.948 1491.91 856.885 1495.5 856.918C1499.09 856.951 1502.02 854.068 1502.06 850.478L1502.61 789.9C1502.69 781.883 1512.42 777.957 1518.04 783.678L1547.87 814.064C1550.38 816.625 1554.5 816.663 1557.06 814.148C1559.62 811.633 1559.66 807.518 1557.14 804.956L1527.31 774.572C1521.7 768.85 1525.8 759.194 1533.82 759.267L1590.4 759.789C1593.98 759.822 1596.92 756.939 1596.95 753.349C1596.99 749.76 1594.1 746.823 1590.52 746.79L1533.94 746.268C1525.92 746.194 1521.99 736.463 1527.72 730.846L1558.1 701.016C1560.66 698.501 1560.7 694.386 1558.19 691.824C1555.67 689.262 1551.56 689.224 1548.99 691.739L1518.61 721.568C1512.89 727.186 1503.23 723.081 1503.3 715.063L1503.92 648.486Z" fill="url(#paint26_radial_665_269)"/>
</g>
<g style="mix-blend-mode:color-dodge">
<path fill-rule="evenodd" clip-rule="evenodd" d="M1503.92 648.486C1503.95 644.897 1501.07 641.96 1497.48 641.927C1493.89 641.894 1490.95 644.777 1490.92 648.367L1490.31 714.943C1490.23 722.961 1480.5 726.887 1474.88 721.165L1445.05 690.781C1442.54 688.219 1438.42 688.181 1435.86 690.696C1433.3 693.211 1433.26 697.326 1435.78 699.888L1465.61 730.273C1471.22 735.995 1467.12 745.652 1459.1 745.578L1402.52 745.056C1398.93 745.023 1396 747.906 1395.96 751.496C1395.93 755.086 1398.81 758.022 1402.4 758.056L1458.98 758.577C1467 758.651 1470.92 768.382 1465.2 773.999L1434.82 803.828C1432.26 806.343 1432.22 810.458 1434.73 813.02C1437.25 815.582 1441.36 815.62 1443.93 813.105L1474.31 783.275C1480.03 777.658 1489.69 781.763 1489.62 789.781L1489.06 850.358C1489.02 853.948 1491.91 856.885 1495.5 856.918C1499.09 856.951 1502.02 854.068 1502.06 850.478L1502.61 789.9C1502.69 781.883 1512.42 777.957 1518.04 783.678L1547.87 814.064C1550.38 816.625 1554.5 816.663 1557.06 814.148C1559.62 811.633 1559.66 807.518 1557.14 804.956L1527.31 774.572C1521.7 768.85 1525.8 759.194 1533.82 759.267L1590.4 759.789C1593.98 759.822 1596.92 756.939 1596.95 753.349C1596.99 749.76 1594.1 746.823 1590.52 746.79L1533.94 746.268C1525.92 746.194 1521.99 736.463 1527.72 730.846L1558.1 701.016C1560.66 698.501 1560.7 694.386 1558.19 691.824C1555.67 689.262 1551.56 689.224 1548.99 691.739L1518.61 721.568C1512.89 727.186 1503.23 723.081 1503.3 715.063L1503.92 648.486Z" fill="white"/>
<path fill-rule="evenodd" clip-rule="evenodd" d="M1503.92 648.486C1503.95 644.897 1501.07 641.96 1497.48 641.927C1493.89 641.894 1490.95 644.777 1490.92 648.367L1490.31 714.943C1490.23 722.961 1480.5 726.887 1474.88 721.165L1445.05 690.781C1442.54 688.219 1438.42 688.181 1435.86 690.696C1433.3 693.211 1433.26 697.326 1435.78 699.888L1465.61 730.273C1471.22 735.995 1467.12 745.652 1459.1 745.578L1402.52 745.056C1398.93 745.023 1396 747.906 1395.96 751.496C1395.93 755.086 1398.81 758.022 1402.4 758.056L1458.98 758.577C1467 758.651 1470.92 768.382 1465.2 773.999L1434.82 803.828C1432.26 806.343 1432.22 810.458 1434.73 813.02C1437.25 815.582 1441.36 815.62 1443.93 813.105L1474.31 783.275C1480.03 777.658 1489.69 781.763 1489.62 789.781L1489.06 850.358C1489.02 853.948 1491.91 856.885 1495.5 856.918C1499.09 856.951 1502.02 854.068 1502.06 850.478L1502.61 789.9C1502.69 781.883 1512.42 777.957 1518.04 783.678L1547.87 814.064C1550.38 816.625 1554.5 816.663 1557.06 814.148C1559.62 811.633 1559.66 807.518 1557.14 804.956L1527.31 774.572C1521.7 768.85 1525.8 759.194 1533.82 759.267L1590.4 759.789C1593.98 759.822 1596.92 756.939 1596.95 753.349C1596.99 749.76 1594.1 746.823 1590.52 746.79L1533.94 746.268C1525.92 746.194 1521.99 736.463 1527.72 730.846L1558.1 701.016C1560.66 698.501 1560.7 694.386 1558.19 691.824C1555.67 689.262 1551.56 689.224 1548.99 691.739L1518.61 721.568C1512.89 727.186 1503.23 723.081 1503.3 715.063L1503.92 648.486Z" fill="url(#paint27_radial_665_269)"/>
</g>
<g style="mix-blend-mode:color-dodge" filter="url(#filter14_f_665_269)">
<path fill-rule="evenodd" clip-rule="evenodd" d="M1503.92 2146.49C1503.95 2142.9 1501.07 2139.96 1497.48 2139.93C1493.89 2139.89 1490.95 2142.78 1490.92 2146.37L1490.31 2212.94C1490.23 2220.96 1480.5 2224.89 1474.88 2219.17L1445.05 2188.78C1442.54 2186.22 1438.42 2186.18 1435.86 2188.7C1433.3 2191.21 1433.26 2195.33 1435.78 2197.89L1465.61 2228.27C1471.22 2233.99 1467.12 2243.65 1459.1 2243.58L1402.52 2243.06C1398.93 2243.02 1396 2245.91 1395.96 2249.5C1395.93 2253.09 1398.81 2256.02 1402.4 2256.06L1458.98 2256.58C1467 2256.65 1470.92 2266.38 1465.2 2272L1434.82 2301.83C1432.26 2304.34 1432.22 2308.46 1434.73 2311.02C1437.25 2313.58 1441.36 2313.62 1443.93 2311.1L1474.31 2281.28C1480.03 2275.66 1489.69 2279.76 1489.62 2287.78L1489.06 2348.36C1489.02 2351.95 1491.91 2354.88 1495.5 2354.92C1499.09 2354.95 1502.02 2352.07 1502.06 2348.48L1502.61 2287.9C1502.69 2279.88 1512.42 2275.96 1518.04 2281.68L1547.87 2312.06C1550.38 2314.63 1554.5 2314.66 1557.06 2312.15C1559.62 2309.63 1559.66 2305.52 1557.14 2302.96L1527.31 2272.57C1521.7 2266.85 1525.8 2257.19 1533.82 2257.27L1590.4 2257.79C1593.98 2257.82 1596.92 2254.94 1596.95 2251.35C1596.99 2247.76 1594.1 2244.82 1590.52 2244.79L1533.94 2244.27C1525.92 2244.19 1521.99 2234.46 1527.72 2228.85L1558.1 2199.02C1560.66 2196.5 1560.7 2192.39 1558.19 2189.82C1555.67 2187.26 1551.56 2187.22 1548.99 2189.74L1518.61 2219.57C1512.89 2225.19 1503.23 2221.08 1503.3 2213.06L1503.92 2146.49Z" fill="white"/>
<path fill-rule="evenodd" clip-rule="evenodd" d="M1503.92 2146.49C1503.95 2142.9 1501.07 2139.96 1497.48 2139.93C1493.89 2139.89 1490.95 2142.78 1490.92 2146.37L1490.31 2212.94C1490.23 2220.96 1480.5 2224.89 1474.88 2219.17L1445.05 2188.78C1442.54 2186.22 1438.42 2186.18 1435.86 2188.7C1433.3 2191.21 1433.26 2195.33 1435.78 2197.89L1465.61 2228.27C1471.22 2233.99 1467.12 2243.65 1459.1 2243.58L1402.52 2243.06C1398.93 2243.02 1396 2245.91 1395.96 2249.5C1395.93 2253.09 1398.81 2256.02 1402.4 2256.06L1458.98 2256.58C1467 2256.65 1470.92 2266.38 1465.2 2272L1434.82 2301.83C1432.26 2304.34 1432.22 2308.46 1434.73 2311.02C1437.25 2313.58 1441.36 2313.62 1443.93 2311.1L1474.31 2281.28C1480.03 2275.66 1489.69 2279.76 1489.62 2287.78L1489.06 2348.36C1489.02 2351.95 1491.91 2354.88 1495.5 2354.92C1499.09 2354.95 1502.02 2352.07 1502.06 2348.48L1502.61 2287.9C1502.69 2279.88 1512.42 2275.96 1518.04 2281.68L1547.87 2312.06C1550.38 2314.63 1554.5 2314.66 1557.06 2312.15C1559.62 2309.63 1559.66 2305.52 1557.14 2302.96L1527.31 2272.57C1521.7 2266.85 1525.8 2257.19 1533.82 2257.27L1590.4 2257.79C1593.98 2257.82 1596.92 2254.94 1596.95 2251.35C1596.99 2247.76 1594.1 2244.82 1590.52 2244.79L1533.94 2244.27C1525.92 2244.19 1521.99 2234.46 1527.72 2228.85L1558.1 2199.02C1560.66 2196.5 1560.7 2192.39 1558.19 2189.82C1555.67 2187.26 1551.56 2187.22 1548.99 2189.74L1518.61 2219.57C1512.89 2225.19 1503.23 2221.08 1503.3 2213.06L1503.92 2146.49Z" fill="url(#paint28_radial_665_269)"/>
</g>
<g style="mix-blend-mode:color-dodge">
<path fill-rule="evenodd" clip-rule="evenodd" d="M1503.92 2146.49C1503.95 2142.9 1501.07 2139.96 1497.48 2139.93C1493.89 2139.89 1490.95 2142.78 1490.92 2146.37L1490.31 2212.94C1490.23 2220.96 1480.5 2224.89 1474.88 2219.17L1445.05 2188.78C1442.54 2186.22 1438.42 2186.18 1435.86 2188.7C1433.3 2191.21 1433.26 2195.33 1435.78 2197.89L1465.61 2228.27C1471.22 2233.99 1467.12 2243.65 1459.1 2243.58L1402.52 2243.06C1398.93 2243.02 1396 2245.91 1395.96 2249.5C1395.93 2253.09 1398.81 2256.02 1402.4 2256.06L1458.98 2256.58C1467 2256.65 1470.92 2266.38 1465.2 2272L1434.82 2301.83C1432.26 2304.34 1432.22 2308.46 1434.73 2311.02C1437.25 2313.58 1441.36 2313.62 1443.93 2311.1L1474.31 2281.28C1480.03 2275.66 1489.69 2279.76 1489.62 2287.78L1489.06 2348.36C1489.02 2351.95 1491.91 2354.88 1495.5 2354.92C1499.09 2354.95 1502.02 2352.07 1502.06 2348.48L1502.61 2287.9C1502.69 2279.88 1512.42 2275.96 1518.04 2281.68L1547.87 2312.06C1550.38 2314.63 1554.5 2314.66 1557.06 2312.15C1559.62 2309.63 1559.66 2305.52 1557.14 2302.96L1527.31 2272.57C1521.7 2266.85 1525.8 2257.19 1533.82 2257.27L1590.4 2257.79C1593.98 2257.82 1596.92 2254.94 1596.95 2251.35C1596.99 2247.76 1594.1 2244.82 1590.52 2244.79L1533.94 2244.27C1525.92 2244.19 1521.99 2234.46 1527.72 2228.85L1558.1 2199.02C1560.66 2196.5 1560.7 2192.39 1558.19 2189.82C1555.67 2187.26 1551.56 2187.22 1548.99 2189.74L1518.61 2219.57C1512.89 2225.19 1503.23 2221.08 1503.3 2213.06L1503.92 2146.49Z" fill="white"/>
<path fill-rule="evenodd" clip-rule="evenodd" d="M1503.92 2146.49C1503.95 2142.9 1501.07 2139.96 1497.48 2139.93C1493.89 2139.89 1490.95 2142.78 1490.92 2146.37L1490.31 2212.94C1490.23 2220.96 1480.5 2224.89 1474.88 2219.17L1445.05 2188.78C1442.54 2186.22 1438.42 2186.18 1435.86 2188.7C1433.3 2191.21 1433.26 2195.33 1435.78 2197.89L1465.61 2228.27C1471.22 2233.99 1467.12 2243.65 1459.1 2243.58L1402.52 2243.06C1398.93 2243.02 1396 2245.91 1395.96 2249.5C1395.93 2253.09 1398.81 2256.02 1402.4 2256.06L1458.98 2256.58C1467 2256.65 1470.92 2266.38 1465.2 2272L1434.82 2301.83C1432.26 2304.34 1432.22 2308.46 1434.73 2311.02C1437.25 2313.58 1441.36 2313.62 1443.93 2311.1L1474.31 2281.28C1480.03 2275.66 1489.69 2279.76 1489.62 2287.78L1489.06 2348.36C1489.02 2351.95 1491.91 2354.88 1495.5 2354.92C1499.09 2354.95 1502.02 2352.07 1502.06 2348.48L1502.61 2287.9C1502.69 2279.88 1512.42 2275.96 1518.04 2281.68L1547.87 2312.06C1550.38 2314.63 1554.5 2314.66 1557.06 2312.15C1559.62 2309.63 1559.66 2305.52 1557.14 2302.96L1527.31 2272.57C1521.7 2266.85 1525.8 2257.19 1533.82 2257.27L1590.4 2257.79C1593.98 2257.82 1596.92 2254.94 1596.95 2251.35C1596.99 2247.76 1594.1 2244.82 1590.52 2244.79L1533.94 2244.27C1525.92 2244.19 1521.99 2234.46 1527.72 2228.85L1558.1 2199.02C1560.66 2196.5 1560.7 2192.39 1558.19 2189.82C1555.67 2187.26 1551.56 2187.22 1548.99 2189.74L1518.61 2219.57C1512.89 2225.19 1503.23 2221.08 1503.3 2213.06L1503.92 2146.49Z" fill="url(#paint29_radial_665_269)"/>
</g>
<defs>
<filter id="filter0_df_665_269" x="951" y="951" width="237" height="237" filterUnits="userSpaceOnUse" color-interpolation-filters="sRGB">
<feFlood flood-opacity="0" result="BackgroundImageFix"/>
<feColorMatrix in="SourceAlpha" type="matrix" values="0 0 0 0 0 0 0 0 0 0 0 0 0 0 0 0 0 0 127 0" result="hardAlpha"/>
<feOffset dy="4"/>
<feGaussianBlur stdDeviation="2"/>
<feComposite in2="hardAlpha" operator="out"/>
<feColorMatrix type="matrix" values="0 0 0 0 0 0 0 0 0 0 0 0 0 0 0 0 0 0 0.25 0"/>
<feBlend mode="normal" in2="BackgroundImageFix" result="effect1_dropShadow_665_269"/>
<feBlend mode="normal" in="SourceGraphic" in2="effect1_dropShadow_665_269" result="shape"/>
<feGaussianBlur stdDeviation="25" result="effect2_foregroundBlur_665_269"/>
</filter>
<filter id="filter1_df_665_269" x="1816" y="948" width="237" height="237" filterUnits="userSpaceOnUse" color-interpolation-filters="sRGB">
<feFlood flood-opacity="0" result="BackgroundImageFix"/>
<feColorMatrix in="SourceAlpha" type="matrix" values="0 0 0 0 0 0 0 0 0 0 0 0 0 0 0 0 0 0 127 0" result="hardAlpha"/>
<feOffset dy="4"/>
<feGaussianBlur stdDeviation="2"/>
<feComposite in2="hardAlpha" operator="out"/>
<feColorMatrix type="matrix" values="0 0 0 0 0 0 0 0 0 0 0 0 0 0 0 0 0 0 0.25 0"/>
<feBlend mode="normal" in2="BackgroundImageFix" result="effect1_dropShadow_665_269"/>
<feBlend mode="normal" in="SourceGraphic" in2="effect1_dropShadow_665_269" result="shape"/>
<feGaussianBlur stdDeviation="25" result="effect2_foregroundBlur_665_269"/>
</filter>
<filter id="filter2_df_665_269" x="964" y="1792" width="237" height="237" filterUnits="userSpaceOnUse" color-interpolation-filters="sRGB">
<feFlood flood-opacity="0" result="BackgroundImageFix"/>
<feColorMatrix in="SourceAlpha" type="matrix" values="0 0 0 0 0 0 0 0 0 0 0 0 0 0 0 0 0 0 127 0" result="hardAlpha"/>
<feOffset dy="4"/>
<feGaussianBlur stdDeviation="2"/>
<feComposite in2="hardAlpha" operator="out"/>
<feColorMatrix type="matrix" values="0 0 0 0 0 0 0 0 0 0 0 0 0 0 0 0 0 0 0.25 0"/>
<feBlend mode="normal" in2="BackgroundImageFix" result="effect1_dropShadow_665_269"/>
<feBlend mode="normal" in="SourceGraphic" in2="effect1_dropShadow_665_269" result="shape"/>
<feGaussianBlur stdDeviation="25" result="effect2_foregroundBlur_665_269"/>
</filter>
<filter id="filter3_df_665_269" x="1797" y="1795" width="237" height="237" filterUnits="userSpaceOnUse" color-interpolation-filters="sRGB">
<feFlood flood-opacity="0" result="BackgroundImageFix"/>
<feColorMatrix in="SourceAlpha" type="matrix" values="0 0 0 0 0 0 0 0 0 0 0 0 0 0 0 0 0 0 127 0" result="hardAlpha"/>
<feOffset dy="4"/>
<feGaussianBlur stdDeviation="2"/>
<feComposite in2="hardAlpha" operator="out"/>
<feColorMatrix type="matrix" values="0 0 0 0 0 0 0 0 0 0 0 0 0 0 0 0 0 0 0.25 0"/>
<feBlend mode="normal" in2="BackgroundImageFix" result="effect1_dropShadow_665_269"/>
<feBlend mode="normal" in="SourceGraphic" in2="effect1_dropShadow_665_269" result="shape"/>
<feGaussianBlur stdDeviation="25" result="effect2_foregroundBlur_665_269"/>
</filter>
<filter id="filter4_df_665_269" x="763.615" y="758.966" width="202" height="203" filterUnits="userSpaceOnUse" color-interpolation-filters="sRGB">
<feFlood flood-opacity="0" result="BackgroundImageFix"/>
<feColorMatrix in="SourceAlpha" type="matrix" values="0 0 0 0 0 0 0 0 0 0 0 0 0 0 0 0 0 0 127 0" result="hardAlpha"/>
<feOffset dy="4"/>
<feGaussianBlur stdDeviation="2"/>
<feComposite in2="hardAlpha" operator="out"/>
<feColorMatrix type="matrix" values="0 0 0 0 0 0 0 0 0 0 0 0 0 0 0 0 0 0 0.25 0"/>
<feBlend mode="normal" in2="BackgroundImageFix" result="effect1_dropShadow_665_269"/>
<feBlend mode="normal" in="SourceGraphic" in2="effect1_dropShadow_665_269" result="shape"/>
<feGaussianBlur stdDeviation="25" result="effect2_foregroundBlur_665_269"/>
</filter>
<filter id="filter5_df_665_269" x="2011" y="770" width="202" height="203" filterUnits="userSpaceOnUse" color-interpolation-filters="sRGB">
<feFlood flood-opacity="0" result="BackgroundImageFix"/>
<feColorMatrix in="SourceAlpha" type="matrix" values="0 0 0 0 0 0 0 0 0 0 0 0 0 0 0 0 0 0 127 0" result="hardAlpha"/>
<feOffset dy="4"/>
<feGaussianBlur stdDeviation="2"/>
<feComposite in2="hardAlpha" operator="out"/>
<feColorMatrix type="matrix" values="0 0 0 0 0 0 0 0 0 0 0 0 0 0 0 0 0 0 0.25 0"/>
<feBlend mode="normal" in2="BackgroundImageFix" result="effect1_dropShadow_665_269"/>
<feBlend mode="normal" in="SourceGraphic" in2="effect1_dropShadow_665_269" result="shape"/>
<feGaussianBlur stdDeviation="25" result="effect2_foregroundBlur_665_269"/>
</filter>
<filter id="filter6_df_665_269" x="774" y="2020" width="202" height="201" filterUnits="userSpaceOnUse" color-interpolation-filters="sRGB">
<feFlood flood-opacity="0" result="BackgroundImageFix"/>
<feColorMatrix in="SourceAlpha" type="matrix" values="0 0 0 0 0 0 0 0 0 0 0 0 0 0 0 0 0 0 127 0" result="hardAlpha"/>
<feOffset dy="4"/>
<feGaussianBlur stdDeviation="2"/>
<feComposite in2="hardAlpha" operator="out"/>
<feColorMatrix type="matrix" values="0 0 0 0 0 0 0 0 0 0 0 0 0 0 0 0 0 0 0.25 0"/>
<feBlend mode="normal" in2="BackgroundImageFix" result="effect1_dropShadow_665_269"/>
<feBlend mode="normal" in="SourceGraphic" in2="effect1_dropShadow_665_269" result="shape"/>
<feGaussianBlur stdDeviation="25" result="effect2_foregroundBlur_665_269"/>
</filter>
<filter id="filter7_df_665_269" x="2029" y="2029" width="202" height="201" filterUnits="userSpaceOnUse" color-interpolation-filters="sRGB">
<feFlood flood-opacity="0" result="BackgroundImageFix"/>
<feColorMatrix in="SourceAlpha" type="matrix" values="0 0 0 0 0 0 0 0 0 0 0 0 0 0 0 0 0 0 127 0" result="hardAlpha"/>
<feOffset dy="4"/>
<feGaussianBlur stdDeviation="2"/>
<feComposite in2="hardAlpha" operator="out"/>
<feColorMatrix type="matrix" values="0 0 0 0 0 0 0 0 0 0 0 0 0 0 0 0 0 0 0.25 0"/>
<feBlend mode="normal" in2="BackgroundImageFix" result="effect1_dropShadow_665_269"/>
<feBlend mode="normal" in="SourceGraphic" in2="effect1_dropShadow_665_269" result="shape"/>
<feGaussianBlur stdDeviation="25" result="effect2_foregroundBlur_665_269"/>
</filter>
<filter id="filter8_f_665_269" x="1556.46" y="1054.5" width="375.047" height="375.047" filterUnits="userSpaceOnUse" color-interpolation-filters="sRGB">
<feFlood flood-opacity="0" result="BackgroundImageFix"/>
<feBlend mode="normal" in="SourceGraphic" in2="BackgroundImageFix" result="shape"/>
<feGaussianBlur stdDeviation="30" result="effect1_foregroundBlur_665_269"/>
</filter>
<filter id="filter9_f_665_269" x="1388.09" y="1388.09" width="220.359" height="220.359" filterUnits="userSpaceOnUse" color-interpolation-filters="sRGB">
<feFlood flood-opacity="0" result="BackgroundImageFix"/>
<feBlend mode="normal" in="SourceGraphic" in2="BackgroundImageFix" result="shape"/>
<feGaussianBlur stdDeviation="30" result="effect1_foregroundBlur_665_269"/>
</filter>
<filter id="filter10_f_665_269" x="1072.49" y="1072.5" width="375.067" height="374.027" filterUnits="userSpaceOnUse" color-interpolation-filters="sRGB">
<feFlood flood-opacity="0" result="BackgroundImageFix"/>
<feBlend mode="normal" in="SourceGraphic" in2="BackgroundImageFix" result="shape"/>
<feGaussianBlur stdDeviation="30" result="effect1_foregroundBlur_665_269"/>
</filter>
<filter id="filter11_f_665_269" x="1529.44" y="1532.47" width="376.067" height="375.027" filterUnits="userSpaceOnUse" color-interpolation-filters="sRGB">
<feFlood flood-opacity="0" result="BackgroundImageFix"/>
<feBlend mode="normal" in="SourceGraphic" in2="BackgroundImageFix" result="shape"/>
<feGaussianBlur stdDeviation="30" result="effect1_foregroundBlur_665_269"/>
</filter>
<filter id="filter12_f_665_269" x="1072.5" y="1542.48" width="376.066" height="375.027" filterUnits="userSpaceOnUse" color-interpolation-filters="sRGB">
<feFlood flood-opacity="0" result="BackgroundImageFix"/>
<feBlend mode="normal" in="SourceGraphic" in2="BackgroundImageFix" result="shape"/>
<feGaussianBlur stdDeviation="30" result="effect1_foregroundBlur_665_269"/>
</filter>
<filter id="filter13_f_665_269" x="1335.96" y="581.927" width="320.992" height="334.991" filterUnits="userSpaceOnUse" color-interpolation-filters="sRGB">
<feFlood flood-opacity="0" result="BackgroundImageFix"/>
<feBlend mode="normal" in="SourceGraphic" in2="BackgroundImageFix" result="shape"/>
<feGaussianBlur stdDeviation="30" result="effect1_foregroundBlur_665_269"/>
</filter>
<filter id="filter14_f_665_269" x="1335.96" y="2079.93" width="320.992" height="334.991" filterUnits="userSpaceOnUse" color-interpolation-filters="sRGB">
<feFlood flood-opacity="0" result="BackgroundImageFix"/>
<feBlend mode="normal" in="SourceGraphic" in2="BackgroundImageFix" result="shape"/>
<feGaussianBlur stdDeviation="30" result="effect1_foregroundBlur_665_269"/>
</filter>
<linearGradient id="paint0_linear_665_269" x1="972.897" y1="983.436" x2="1159.08" y2="1157.76" gradientUnits="userSpaceOnUse">
<stop stop-color="#FFF0D4"/>
<stop offset="0.243631" stop-color="#F7B928"/>
<stop offset="0.489592" stop-color="#FF2407"/>
<stop offset="0.720583" stop-color="#82C3FF"/>
<stop offset="0.979167" stop-color="#96DAE9"/>
</linearGradient>
<linearGradient id="paint1_linear_665_269" x1="2020.56" y1="969.897" x2="1846.24" y2="1156.08" gradientUnits="userSpaceOnUse">
<stop stop-color="#FFF0D4"/>
<stop offset="0.243631" stop-color="#F7B928"/>
<stop offset="0.489592" stop-color="#FF2407"/>
<stop offset="0.720583" stop-color="#82C3FF"/>
<stop offset="0.979167" stop-color="#96DAE9"/>
</linearGradient>
<linearGradient id="paint2_linear_665_269" x1="985.897" y1="1996.56" x2="1172.08" y2="1822.24" gradientUnits="userSpaceOnUse">
<stop stop-color="#FFF0D4"/>
<stop offset="0.243631" stop-color="#F7B928"/>
<stop offset="0.489592" stop-color="#FF2407"/>
<stop offset="0.720583" stop-color="#82C3FF"/>
<stop offset="0.979167" stop-color="#96DAE9"/>
</linearGradient>
<linearGradient id="paint3_linear_665_269" x1="2001.56" y1="2010.1" x2="1827.24" y2="1823.92" gradientUnits="userSpaceOnUse">
<stop stop-color="#FFF0D4"/>
<stop offset="0.243631" stop-color="#F7B928"/>
<stop offset="0.489592" stop-color="#FF2407"/>
<stop offset="0.720583" stop-color="#82C3FF"/>
<stop offset="0.979167" stop-color="#96DAE9"/>
</linearGradient>
<linearGradient id="paint4_linear_665_269" x1="801.154" y1="803.3" x2="924.723" y2="917.729" gradientUnits="userSpaceOnUse">
<stop stop-color="#FFF0D4"/>
<stop offset="0.243631" stop-color="#F7B928"/>
<stop offset="0.489592" stop-color="#FF2407"/>
<stop offset="0.720583" stop-color="#82C3FF"/>
<stop offset="0.979167" stop-color="#96DAE9"/>
</linearGradient>
<linearGradient id="paint5_linear_665_269" x1="2048.54" y1="814.333" x2="2172.11" y2="928.763" gradientUnits="userSpaceOnUse">
<stop stop-color="#FFF0D4"/>
<stop offset="0.243631" stop-color="#F7B928"/>
<stop offset="0.489592" stop-color="#FF2407"/>
<stop offset="0.720583" stop-color="#82C3FF"/>
<stop offset="0.979167" stop-color="#96DAE9"/>
</linearGradient>
<linearGradient id="paint6_linear_665_269" x1="811.538" y1="2064.59" x2="932.568" y2="2179.18" gradientUnits="userSpaceOnUse">
<stop stop-color="#FFF0D4"/>
<stop offset="0.243631" stop-color="#F7B928"/>
<stop offset="0.489592" stop-color="#FF2407"/>
<stop offset="0.720583" stop-color="#82C3FF"/>
<stop offset="0.979167" stop-color="#96DAE9"/>
</linearGradient>
<linearGradient id="paint7_linear_665_269" x1="2066.54" y1="2073.59" x2="2187.57" y2="2188.18" gradientUnits="userSpaceOnUse">
<stop stop-color="#FFF0D4"/>
<stop offset="0.243631" stop-color="#F7B928"/>
<stop offset="0.489592" stop-color="#FF2407"/>
<stop offset="0.720583" stop-color="#82C3FF"/>
<stop offset="0.979167" stop-color="#96DAE9"/>
</linearGradient>
<linearGradient id="paint8_linear_665_269" x1="1590.72" y1="1414.05" x2="1901.19" y2="1082.46" gradientUnits="userSpaceOnUse">
<stop stop-color="#FFF0D4"/>
<stop offset="0.243631" stop-color="#F7B928"/>
<stop offset="0.489592" stop-color="#FF2407"/>
<stop offset="0.720583" stop-color="#82C3FF"/>
<stop offset="0.979167" stop-color="#96DAE9"/>
</linearGradient>
<linearGradient id="paint9_linear_665_269" x1="1431.94" y1="1444.59" x2="1560.04" y2="1553.61" gradientUnits="userSpaceOnUse">
<stop stop-color="#FFF0D4"/>
<stop offset="0.243631" stop-color="#F7B928"/>
<stop offset="0.489592" stop-color="#FF2407"/>
<stop offset="0.720583" stop-color="#82C3FF"/>
<stop offset="0.979167" stop-color="#96DAE9"/>
</linearGradient>
<linearGradient id="paint10_linear_665_269" x1="1432.05" y1="1412.15" x2="1101.73" y2="1101.6" gradientUnits="userSpaceOnUse">
<stop stop-color="#FFF0D4"/>
<stop offset="0.243631" stop-color="#F7B928"/>
<stop offset="0.489592" stop-color="#FF2407"/>
<stop offset="0.720583" stop-color="#82C3FF"/>
<stop offset="0.979167" stop-color="#96DAE9"/>
</linearGradient>
<linearGradient id="paint11_linear_665_269" x1="1578.72" y1="1432.05" x2="1889.19" y2="1100.46" gradientUnits="userSpaceOnUse">
<stop stop-color="#FFF0D4"/>
<stop offset="0.243631" stop-color="#F7B928"/>
<stop offset="0.489592" stop-color="#FF2407"/>
<stop offset="0.720583" stop-color="#82C3FF"/>
<stop offset="0.979167" stop-color="#96DAE9"/>
</linearGradient>
<linearGradient id="paint12_linear_665_269" x1="1435.05" y1="1413.15" x2="1104.73" y2="1102.6" gradientUnits="userSpaceOnUse">
<stop stop-color="#FFF0D4"/>
<stop offset="0.243631" stop-color="#F7B928"/>
<stop offset="0.489592" stop-color="#FF2407"/>
<stop offset="0.720583" stop-color="#82C3FF"/>
<stop offset="0.979167" stop-color="#96DAE9"/>
</linearGradient>
<linearGradient id="paint13_linear_665_269" x1="1544.74" y1="1566.72" x2="1838.87" y2="1843.2" gradientUnits="userSpaceOnUse">
<stop offset="0.243631" stop-color="#F7B928"/>
<stop offset="0.510417" stop-color="#FF2407"/>
<stop offset="0.720583" stop-color="#4FC8FF"/>
<stop offset="0.979167" stop-color="#66FFFF"/>
</linearGradient>
<linearGradient id="paint14_linear_665_269" x1="1561.74" y1="1579.72" x2="1855.87" y2="1856.2" gradientUnits="userSpaceOnUse">
<stop offset="0.243631" stop-color="#F7B928"/>
<stop offset="0.544141" stop-color="#FF2407"/>
<stop offset="0.742385" stop-color="#4FC8FF"/>
<stop offset="0.979167" stop-color="#66FFFF"/>
</linearGradient>
<linearGradient id="paint15_linear_665_269" x1="1414.41" y1="1557.95" x2="1104.02" y2="1890.81" gradientUnits="userSpaceOnUse">
<stop stop-color="#FFF0D4"/>
<stop offset="0.243631" stop-color="#F7B928"/>
<stop offset="0.489592" stop-color="#FF2407"/>
<stop offset="0.720583" stop-color="#579FFF"/>
<stop offset="0.979167" stop-color="#74FFFF"/>
</linearGradient>
<linearGradient id="paint16_linear_665_269" x1="1415.41" y1="1562.95" x2="1105.02" y2="1895.81" gradientUnits="userSpaceOnUse">
<stop stop-color="#FFF0D4"/>
<stop offset="0.243631" stop-color="#F7B928"/>
<stop offset="0.489592" stop-color="#FF2407"/>
<stop offset="0.633703" stop-color="#579FFF"/>
<stop offset="0.823063" stop-color="#74FFFF"/>
</linearGradient>
<linearGradient id="paint17_linear_665_269" x1="975.897" y1="986.436" x2="1162.08" y2="1160.76" gradientUnits="userSpaceOnUse">
<stop stop-color="#FFF0D4"/>
<stop offset="0.243631" stop-color="#F7B928"/>
<stop offset="0.489592" stop-color="#FF2407"/>
<stop offset="0.720583" stop-color="#5BFFFF"/>
<stop offset="0.979167" stop-color="#74FFFF"/>
</linearGradient>
<linearGradient id="paint18_linear_665_269" x1="2005.56" y1="975.898" x2="1846" y2="1141" gradientUnits="userSpaceOnUse">
<stop stop-color="#FFF0D4"/>
<stop offset="0.243631" stop-color="#F7B928"/>
<stop offset="0.489592" stop-color="#FF2407"/>
<stop offset="0.720583" stop-color="#50E1FF"/>
<stop offset="0.979167" stop-color="#68FFFF"/>
</linearGradient>
<linearGradient id="paint19_linear_665_269" x1="976.897" y1="2007.43" x2="1136.9" y2="1856.83" gradientUnits="userSpaceOnUse">
<stop offset="0.191337" stop-color="#F7B928"/>
<stop offset="0.489592" stop-color="#FF2407"/>
<stop offset="0.726592" stop-color="#5D91FF"/>
<stop offset="0.979167" stop-color="#66FEFF"/>
</linearGradient>
<linearGradient id="paint20_linear_665_269" x1="2023" y1="2029" x2="1855" y2="1854" gradientUnits="userSpaceOnUse">
<stop offset="0.171392" stop-color="#F7B928"/>
<stop offset="0.489592" stop-color="#FF2407"/>
<stop offset="0.746997" stop-color="#647FFF"/>
<stop offset="0.979167" stop-color="#5DFFFF"/>
</linearGradient>
<linearGradient id="paint21_linear_665_269" x1="886.333" y1="776.162" x2="857.004" y2="942.003" gradientUnits="userSpaceOnUse">
<stop stop-color="#FFF0D4"/>
<stop offset="0.243631" stop-color="#F7B928"/>
<stop offset="0.489592" stop-color="#FF2407"/>
<stop offset="0.720583" stop-color="#82C3FF"/>
<stop offset="0.979167" stop-color="#96DAE9"/>
</linearGradient>
<linearGradient id="paint22_linear_665_269" x1="2064.54" y1="814.333" x2="2188.11" y2="928.763" gradientUnits="userSpaceOnUse">
<stop stop-color="#FFF0D4"/>
<stop offset="0.243631" stop-color="#F7B928"/>
<stop offset="0.489592" stop-color="#FF2407"/>
<stop offset="0.720583" stop-color="#82C3FF"/>
<stop offset="0.979167" stop-color="#96DAE9"/>
</linearGradient>
<linearGradient id="paint23_linear_665_269" x1="878.289" y1="2040.98" x2="865.839" y2="2207.19" gradientUnits="userSpaceOnUse">
<stop stop-color="#FFF0D4"/>
<stop offset="0.243631" stop-color="#F7B928"/>
<stop offset="0.489592" stop-color="#FF2407"/>
<stop offset="0.720583" stop-color="#82C3FF"/>
<stop offset="0.979167" stop-color="#96DAE9"/>
</linearGradient>
<linearGradient id="paint24_linear_665_269" x1="2061.94" y1="2069.59" x2="2190.04" y2="2178.61" gradientUnits="userSpaceOnUse">
<stop stop-color="#FFF0D4"/>
<stop offset="0.243631" stop-color="#F7B928"/>
<stop offset="0.489592" stop-color="#FF2407"/>
<stop offset="0.720583" stop-color="#82C3FF"/>
<stop offset="0.979167" stop-color="#96DAE9"/>
</linearGradient>
<linearGradient id="paint25_linear_665_269" x1="1431.94" y1="1444.59" x2="1560.04" y2="1553.61" gradientUnits="userSpaceOnUse">
<stop stop-color="#FFF0D4"/>
<stop offset="0.243631" stop-color="#F7B928"/>
<stop offset="0.489592" stop-color="#FF2407"/>
<stop offset="0.720583" stop-color="#82C3FF"/>
<stop offset="0.979167" stop-color="#96DAE9"/>
</linearGradient>
<radialGradient id="paint26_radial_665_269" cx="0" cy="0" r="1" gradientUnits="userSpaceOnUse" gradientTransform="translate(1496.43 755.422) rotate(0.528378) scale(186 133)">
<stop stop-color="#FFBDC1"/>
<stop offset="0.260417" stop-color="#F76628"/>
<stop offset="0.932292" stop-color="#FFF733"/>
</radialGradient>
<radialGradient id="paint27_radial_665_269" cx="0" cy="0" r="1" gradientUnits="userSpaceOnUse" gradientTransform="translate(1496.43 755.422) rotate(-36.8001) scale(109.344 102.725)">
<stop offset="0.129177" stop-color="#F76628"/>
<stop offset="0.739525" stop-color="#FFF733"/>
</radialGradient>
<radialGradient id="paint28_radial_665_269" cx="0" cy="0" r="1" gradientUnits="userSpaceOnUse" gradientTransform="translate(1496.43 2253.42) rotate(0.528378) scale(186 133)">
<stop stop-color="#FFBDC1"/>
<stop offset="0.260417" stop-color="#F76628"/>
<stop offset="0.932292" stop-color="#FFF733"/>
</radialGradient>
<radialGradient id="paint29_radial_665_269" cx="0" cy="0" r="1" gradientUnits="userSpaceOnUse" gradientTransform="translate(1496.43 2253.42) rotate(-36.8001) scale(109.344 102.725)">
<stop offset="0.129177" stop-color="#F76628"/>
<stop offset="0.739525" stop-color="#FFF733"/>
</radialGradient>
</defs>
</svg>
